<?xml version="1.0" standalone="no"?>
<!DOCTYPE svg PUBLIC "-//W3C//DTD SVG 20010904//EN"
 "http://www.w3.org/TR/2001/REC-SVG-20010904/DTD/svg10.dtd">
<svg version="1.0" xmlns="http://www.w3.org/2000/svg"
 width="500.000000pt" height="500.000000pt" viewBox="0 0 500.000000 500.000000"
 preserveAspectRatio="xMidYMid meet">
<metadata>
Created by potrace 1.14, written by Peter Selinger 2001-2017
</metadata>
<g transform="translate(0.000000,500.000000) scale(0.100000,-0.100000)"
fill="#000000" stroke="none">
<path d="M0 2500 l0 -2500 1051 0 c791 0 1048 3 1043 12 -5 7 -3 8 7 2 19 -12
58 -13 65 -2 3 5 12 4 19 -2 9 -8 15 -8 20 0 3 6 11 8 16 4 5 -3 8 0 7 8 -2 7
3 12 9 11 7 -2 12 3 10 10 -1 6 4 11 10 10 7 -2 12 3 10 10 -1 6 4 11 10 10 7
-2 12 3 10 10 -1 6 4 11 10 10 7 -2 12 3 10 10 -1 6 4 11 10 10 7 -2 12 3 10
10 -1 6 4 11 10 10 7 -2 12 3 10 10 -1 6 4 11 10 10 7 -2 12 3 10 10 -1 6 4
11 10 10 7 -2 12 3 10 10 -1 6 4 11 10 10 7 -2 12 3 10 10 -1 6 4 11 10 10 7
-2 12 3 10 10 -1 6 4 11 10 10 7 -2 12 3 10 10 -1 6 4 11 10 10 7 -2 12 3 10
10 -1 6 4 11 10 10 7 -2 12 3 10 10 -1 6 4 11 10 10 7 -2 12 3 10 10 -1 6 4
11 10 10 7 -2 12 3 10 10 -1 6 4 11 10 10 7 -2 12 3 10 10 -1 6 4 11 10 10 7
-2 12 3 10 10 -1 6 4 11 10 10 7 -2 12 3 10 10 -1 6 4 11 10 10 7 -2 12 3 10
10 -1 6 4 11 10 10 7 -2 12 3 10 10 -1 6 4 11 10 10 7 -2 12 3 10 10 -1 6 4
11 10 10 7 -2 12 3 10 10 -1 6 4 11 10 10 7 -2 12 3 10 10 -1 6 4 11 10 10 7
-2 12 3 10 10 -1 6 5 11 13 9 8 -2 11 0 7 4 -21 22 -266 21 -337 0 -30 -9 -78
-16 -108 -16 -47 0 -53 2 -42 15 11 13 -1 15 -99 15 -61 0 -111 4 -111 8 0 4
26 23 57 42 97 59 150 107 186 168 71 121 97 236 97 434 0 163 -5 178 -64 178
-48 0 -76 -19 -76 -50 0 -25 20 -36 32 -19 8 12 9 11 5 -1 -7 -26 -36 -23 -48
4 -13 28 -29 35 -29 12 0 -18 -26 -27 -56 -20 -29 7 -30 15 -4 39 14 13 28 16
55 11 24 -5 35 -3 35 5 0 7 7 21 16 30 16 17 14 21 -20 59 -55 61 -46 137 15
128 35 -5 33 -23 -3 -23 -26 0 -34 -5 -36 -22 -6 -41 88 -123 142 -123 20 0 3
69 -36 143 l-32 59 -58 -4 c-69 -5 -100 -29 -118 -92 -14 -52 -10 -108 9 -114
8 -3 11 0 7 7 -4 6 -3 11 2 11 12 0 23 -26 15 -34 -4 -3 -15 -6 -25 -6 -20 0
-37 35 -39 78 -1 23 -5 18 -27 -28 -40 -83 -56 -102 -83 -98 -29 4 -39 38 -12
38 14 0 15 -2 4 -9 -17 -11 1 -23 22 -15 16 6 84 147 93 192 9 44 -14 56 -91
49 -178 -17 -301 -164 -196 -234 23 -15 28 -23 17 -23 -10 0 -31 13 -47 29
-35 35 -37 72 -9 119 11 18 20 34 20 37 0 13 -75 -25 -142 -72 -79 -55 -122
-99 -112 -114 3 -5 0 -9 -5 -9 -6 0 -11 10 -11 22 0 13 20 40 52 70 52 48 53
49 23 47 -17 -1 -55 1 -86 5 -46 7 -57 5 -62 -8 -8 -19 6 -28 29 -19 12 4 15
3 10 -5 -4 -7 -1 -12 8 -12 20 0 31 -19 18 -32 -13 -13 -55 0 -49 16 3 7 -4
18 -14 24 -13 9 -18 19 -14 35 5 18 0 26 -27 39 -18 9 -82 57 -142 107 -61 50
-120 94 -132 97 -30 8 -64 -4 -64 -22 0 -8 -4 -14 -10 -14 -13 0 -1 32 18 47
35 28 87 8 177 -67 64 -53 82 -61 65 -31 -17 32 -12 79 9 91 30 16 70 -7 42
-24 -5 -3 -12 2 -16 12 -6 16 -7 16 -20 -2 -12 -16 -12 -24 1 -54 41 -98 110
-141 240 -150 87 -5 115 3 167 52 24 22 27 29 16 42 -15 19 -75 15 -71 -4 1
-8 -2 -11 -8 -7 -8 5 -7 11 2 22 10 13 29 14 114 8 70 -5 114 -3 142 6 23 7
42 15 42 18 0 3 -16 17 -36 30 -37 26 -64 67 -64 100 0 22 25 51 43 51 7 0 4
-5 -5 -11 -24 -13 -23 -61 2 -90 10 -13 19 -19 20 -12 0 7 11 1 24 -12 31 -31
99 -49 159 -41 53 7 130 35 125 45 -2 3 -20 36 -41 72 -20 37 -43 90 -50 119
-12 51 -14 54 -66 77 -62 27 -97 24 -110 -10 -10 -27 -4 -40 15 -33 8 3 14 1
14 -5 0 -6 -10 -9 -22 -7 -36 5 -35 43 1 78 l30 31 -19 32 c-22 36 -27 106 -8
125 20 20 56 14 69 -11 l12 -22 -22 20 c-50 44 -81 -33 -39 -95 25 -37 82 -80
106 -80 34 0 -13 227 -54 261 -13 10 -22 9 -51 -6 -80 -43 -150 -162 -90 -153
14 2 21 9 20 22 -1 11 2 15 8 9 12 -12 2 -40 -18 -47 -18 -7 -43 10 -43 30 0
17 -7 17 -66 2 l-46 -13 6 -55 c4 -38 13 -60 27 -72 20 -17 47 -14 61 6 5 7 8
7 8 -2 0 -23 -47 -37 -77 -23 -25 12 -29 10 -43 -11 -39 -60 -90 -84 -118 -56
-14 14 -16 44 -3 52 5 4 7 -2 4 -12 -6 -24 21 -45 46 -37 31 9 71 85 71 131 0
68 2 67 -175 49 -166 -17 -204 -29 -231 -71 -30 -45 14 -95 73 -82 10 2 17 10
15 17 -1 7 2 10 8 6 19 -12 -10 -35 -44 -35 -57 1 -96 52 -76 100 15 37 47 58
124 81 48 15 52 18 21 14 -139 -20 -217 -69 -254 -160 -16 -42 -20 -64 -14
-75 12 -18 53 -26 53 -10 0 6 5 8 11 4 7 -4 6 -12 -5 -23 -15 -14 -19 -14 -44
-1 -35 20 -50 61 -35 100 6 17 8 30 3 30 -5 0 -32 -22 -62 -49 -108 -98 -173
-126 -232 -100 -32 15 -52 61 -37 86 9 15 10 13 11 -14 0 -48 37 -70 91 -54
34 10 165 115 177 141 4 10 -87 50 -113 50 -18 0 -31 -10 -45 -32 -14 -24 -20
-28 -20 -15 0 10 14 32 30 49 l31 30 -21 35 c-22 38 -27 102 -8 121 15 15 55
16 64 1 4 -7 0 -9 -13 -5 -51 16 -70 -33 -36 -97 19 -38 35 -52 88 -77 56 -27
91 -25 134 9 21 17 49 35 64 42 30 14 32 19 15 38 -7 8 -1 6 14 -3 24 -16 30
-16 84 0 40 11 74 14 113 10 l56 -7 -65 66 c-76 77 -105 95 -157 95 -41 0 -93
-29 -105 -57 -6 -16 -7 -15 -7 4 -1 12 11 31 25 42 l27 21 -57 0 c-72 0 -177
26 -219 54 -46 31 -74 87 -60 119 6 13 21 27 33 30 20 5 19 4 -4 -18 -31 -29
-32 -38 -6 -80 35 -57 86 -73 270 -83 127 -8 165 -13 178 -26 9 -9 43 -32 74
-50 l56 -34 6 23 c6 24 31 39 47 29 14 -8 11 -24 -4 -18 -18 7 -39 -19 -31
-39 3 -8 32 -25 65 -37 118 -45 241 -8 301 90 48 79 47 92 -10 129 -85 54
-148 33 -123 -42 10 -29 9 -30 -4 -13 -8 11 -15 31 -15 44 0 20 -4 23 -22 18
-101 -29 -169 -12 -167 42 2 27 2 27 6 2 3 -14 10 -28 17 -32 22 -14 96 -8
148 13 56 22 127 21 155 -2 30 -26 21 1 -12 33 -38 37 -99 70 -212 116 -144
59 -285 171 -321 255 -10 24 -17 27 -64 29 -130 4 -168 -11 -168 -67 0 -22 6
-38 18 -44 9 -6 12 -11 7 -11 -38 -1 -48 82 -15 118 l20 21 -48 46 -47 46 50
-34 c57 -39 106 -51 171 -41 36 5 48 12 57 33 18 42 38 61 66 60 21 -1 22 -2
6 -6 -122 -30 -23 -228 161 -325 39 -21 87 -39 106 -42 80 -10 397 -255 398
-308 1 -15 42 78 72 162 16 42 19 71 15 124 -5 77 -22 101 -67 92 -23 -4 -23
-4 3 7 15 6 27 16 27 21 0 6 11 -7 25 -29 20 -32 24 -53 25 -111 0 -39 -7 -91
-15 -114 -20 -56 -19 -70 5 -70 31 0 56 -69 31 -84 -5 -4 -7 2 -4 12 6 23 -23
54 -46 50 -26 -5 -25 -69 3 -158 14 -45 26 -101 26 -125 0 -55 19 -145 30
-145 5 0 18 13 29 29 35 48 23 101 -22 101 -14 0 -17 -5 -12 -17 5 -15 4 -16
-6 -5 -11 10 -10 15 4 29 14 14 20 15 41 4 14 -8 30 -26 36 -41 11 -27 13 -27
74 -23 55 5 66 3 85 -16 26 -26 27 -43 1 -66 -18 -17 -22 -17 -36 -3 -13 13
-13 15 8 14 26 -1 36 27 18 49 -41 49 -200 -32 -200 -102 0 -29 68 -123 97
-134 40 -15 80 -1 109 37 48 63 100 269 110 436 l7 108 -54 25 c-65 30 -102
32 -129 5 -21 -21 -27 -55 -10 -63 6 -3 5 -4 -2 -3 -36 7 -11 97 32 111 19 6
19 7 -4 53 -27 53 -42 107 -27 98 5 -4 12 -19 16 -34 12 -58 108 -142 161
-142 15 0 16 11 11 106 -6 96 -11 114 -43 178 -41 80 -116 185 -166 232 -72
69 -176 112 -242 101 -56 -9 -125 -45 -140 -75 -9 -15 -15 -20 -16 -12 0 28
37 76 69 90 18 7 28 16 24 20 -4 4 -46 11 -93 15 -167 13 -240 43 -264 110 -5
14 4 9 31 -16 48 -46 81 -56 221 -63 l113 -6 -24 32 c-45 62 -70 128 -48 128
15 0 24 -20 9 -20 -8 0 -6 -5 5 -11 9 -6 15 -14 12 -20 -4 -5 -2 -9 2 -9 5 0
19 -22 32 -50 22 -47 25 -49 80 -60 31 -6 73 -18 94 -26 20 -7 39 -13 41 -11
2 1 16 -13 31 -31 15 -18 44 -41 64 -52 21 -10 63 -40 95 -66 l58 -47 -7 34
c-4 19 -13 52 -20 74 -38 121 -45 154 -41 193 5 47 20 72 45 72 14 1 14 2 -1
11 -27 15 -22 39 7 39 37 0 31 18 -7 23 -26 3 -23 4 14 5 26 1 50 7 53 12 3 6
11 10 17 10 7 0 -4 -14 -22 -30 -35 -31 -39 -43 -40 -123 -1 -52 3 -71 57
-224 l35 -102 38 19 c43 22 87 70 96 106 3 13 4 58 2 99 -3 67 -2 72 10 49 17
-32 23 -26 33 29 6 32 7 28 3 -20 -5 -66 8 -137 28 -150 23 -13 72 -2 143 32
96 46 166 111 205 188 27 52 30 57 25 27 l-6 -36 43 5 c29 2 37 6 25 10 -17 6
-17 8 -3 20 8 7 21 9 27 5 8 -5 11 -2 8 7 -3 8 12 31 33 52 21 22 38 34 38 29
0 -6 -4 -13 -9 -17 -24 -14 -91 -130 -91 -156 0 -38 38 -49 86 -25 30 14 33
19 24 35 -9 18 -8 19 22 10 42 -12 58 -11 58 1 0 5 -19 13 -42 17 -32 5 -38 8
-23 13 23 8 70 -3 92 -22 13 -10 10 -14 -18 -24 -19 -7 -43 -13 -53 -13 -11
-1 -27 -8 -37 -17 -10 -9 -65 -27 -121 -39 -123 -27 -142 -34 -214 -80 -52
-33 -65 -63 -23 -52 10 3 21 1 24 -3 6 -9 52 2 82 19 15 8 11 10 -18 7 -20 -2
-42 -7 -49 -11 -8 -5 -11 -3 -8 5 8 25 34 33 84 25 l49 -7 -38 -33 -39 -34 31
-15 c40 -21 61 -53 61 -93 0 -31 -31 -73 -54 -73 -6 0 0 7 12 16 39 27 24 88
-33 136 -26 23 -35 22 -35 -2 0 -20 0 -20 -20 0 -66 66 -245 24 -369 -87 l-53
-48 17 -108 18 -108 29 27 c36 35 39 86 6 102 -16 7 -18 11 -7 11 20 1 49 -30
49 -52 0 -13 6 -16 23 -13 27 6 55 9 84 7 40 -2 53 -61 17 -75 -13 -5 -13 -3
0 15 23 34 10 49 -45 49 -42 0 -53 -5 -89 -38 -36 -35 -53 -71 -32 -72 137 -7
267 -22 302 -34 58 -20 124 -21 140 -1 19 22 -3 44 -25 25 -8 -7 -15 -8 -15
-2 0 13 26 23 45 16 20 -8 19 -41 -2 -52 -32 -18 21 -34 90 -26 83 9 142 32
210 83 102 77 153 192 93 207 -50 12 -87 -14 -72 -52 7 -19 8 -19 22 0 8 11
14 15 14 9 0 -16 -28 -36 -40 -28 -33 21 15 95 63 95 15 0 18 4 13 23 -27 90
-11 148 42 146 21 -1 22 -2 7 -6 -11 -3 -26 -10 -32 -15 -21 -17 -15 -79 12
-136 28 -61 29 -72 11 -124 -13 -36 -13 -37 6 -27 32 17 91 119 147 254 83
202 88 252 30 282 l-24 13 27 0 c32 0 53 -27 62 -82 4 -21 9 -38 12 -38 3 0
20 11 37 24 47 36 123 66 166 66 46 0 91 -32 90 -63 0 -19 -2 -19 -10 5 -28
76 -164 41 -267 -70 -43 -46 -110 -167 -99 -178 3 -3 16 4 29 16 21 20 59 40
77 40 4 0 28 -16 54 -36 29 -23 54 -34 69 -32 28 4 36 34 11 41 -14 4 -13 5 5
6 20 1 23 -3 20 -26 -2 -23 -8 -29 -36 -31 -21 -2 -43 4 -61 18 l-30 20 -3
-22 c-2 -16 -10 -24 -28 -25 -14 -2 -19 0 -10 4 35 14 33 53 -4 53 -20 0 -57
-20 -81 -45 -6 -5 -41 -53 -77 -105 -70 -99 -182 -217 -233 -244 l-30 -15 29
-1 c15 0 58 -14 94 -31 51 -25 83 -33 147 -36 93 -6 125 4 125 42 0 29 -19 43
-31 24 -7 -11 -9 -11 -9 -1 0 7 7 15 15 19 18 6 58 -25 52 -41 -3 -7 10 -11
31 -11 20 0 37 -6 40 -13 3 -11 0 -12 -15 -3 -16 8 -29 5 -59 -11 -32 -18 -55
-22 -129 -21 -55 0 -106 6 -131 16 -41 15 -42 15 -52 -9 -13 -28 -53 -40 -79
-24 -16 10 -16 10 4 5 27 -7 59 31 41 52 -15 18 -60 16 -156 -10 l-83 -23 93
-90 c100 -98 145 -122 192 -104 31 11 48 47 34 73 -10 20 -34 23 -41 5 -3 -8
-6 -6 -6 4 -1 13 7 17 39 15 31 -1 44 4 56 21 8 12 24 22 35 22 19 0 79 -26
79 -34 0 -3 -15 -14 -34 -25 -39 -25 -69 -27 -86 -6 -20 25 -29 17 -23 -19 11
-71 -67 -107 -152 -72 -19 8 -68 47 -109 85 -41 39 -77 71 -80 71 -2 0 -2 -17
1 -37 6 -49 -25 -93 -67 -93 -36 0 -47 17 -26 38 15 15 16 15 11 1 -8 -22 18
-31 41 -15 16 12 17 18 5 72 -16 73 -61 120 -141 149 -74 26 -257 25 -342 -3
l-57 -18 -8 -285 c-4 -156 -7 -314 -7 -350 1 -121 19 -149 93 -149 84 0 213
79 210 129 -1 22 -50 101 -71 115 -24 14 -37 -3 -15 -19 10 -7 14 -16 9 -19
-14 -8 -35 21 -28 39 3 8 12 15 21 15 11 0 15 11 15 43 0 23 7 85 16 137 27
163 28 197 10 225 -18 28 -47 33 -66 10 -7 -8 -17 -12 -24 -8 -6 4 -23 6 -37
5 -28 -3 -42 9 -57 48 -9 25 -9 25 30 21 34 -3 42 -8 52 -32 12 -33 18 -35 51
-13 23 15 27 15 50 0 14 -9 28 -28 31 -42 8 -30 -1 -179 -12 -209 -6 -16 -1
-15 23 8 38 35 86 35 91 0 2 -13 -1 -23 -7 -23 -6 0 -8 7 -5 15 8 21 -22 30
-43 14 -25 -21 -63 -110 -63 -148 0 -47 35 -116 72 -143 29 -20 33 -20 71 -7
54 19 84 60 71 96 -9 27 -41 40 -37 16 2 -7 -2 -13 -7 -13 -15 0 -12 26 4 39
18 15 41 5 55 -26 13 -28 7 -59 -17 -86 -8 -9 -13 -19 -10 -22 2 -3 58 17 124
44 65 27 138 52 161 56 28 4 49 15 60 31 10 13 33 46 52 72 28 40 38 48 58 44
31 -6 40 -29 21 -48 -13 -13 -16 -13 -29 2 -12 15 -12 16 10 9 17 -5 22 -4 19
6 -8 24 -28 20 -57 -12 -33 -36 -57 -86 -47 -96 4 -4 41 -1 84 6 156 25 252
129 195 210 -15 22 -17 23 -29 7 -8 -11 -14 -13 -19 -7 -10 17 4 31 29 31 34
0 46 -19 46 -77 0 -45 4 -55 25 -69 25 -17 33 -55 17 -82 -13 -20 -56 32 -49
59 5 17 -1 14 -24 -15 -17 -20 -45 -44 -62 -52 l-31 -17 23 -18 c13 -11 39
-19 61 -19 55 0 149 52 183 100 30 45 36 90 11 90 -10 0 -14 -6 -11 -14 4 -10
1 -13 -9 -9 -7 3 -14 14 -14 24 0 14 7 19 25 19 28 0 31 16 10 44 -23 30 -18
54 16 89 l32 31 13 -49 c13 -53 5 -85 -21 -85 -19 0 -19 -25 1 -55 17 -26 16
-53 -4 -74 -7 -7 -10 -16 -7 -19 3 -4 10 0 15 8 5 8 14 16 20 16 5 1 15 2 21
3 6 0 8 8 5 17 -5 13 -2 15 14 11 11 -3 22 -2 25 2 2 5 -8 8 -23 7 -17 -1 -26
-6 -24 -14 1 -8 -2 -11 -7 -8 -13 9 -6 92 9 111 15 18 82 37 113 33 16 -2 22
2 22 17 -1 11 2 22 5 25 3 3 17 23 30 44 20 34 24 36 31 20 3 -10 16 -27 28
-38 11 -10 19 -22 16 -26 -2 -4 2 -7 10 -7 8 0 13 5 12 11 -1 6 4 10 10 9 7
-2 12 3 10 10 -1 6 4 11 10 10 7 -2 12 3 10 10 -1 6 4 11 10 10 7 -2 12 3 10
10 -1 6 4 11 10 10 7 -2 12 3 10 10 -1 6 4 11 10 10 7 -2 12 3 10 10 -1 6 4
11 10 10 7 -2 12 3 10 10 -1 6 4 11 10 10 7 -2 12 3 10 10 -1 6 4 11 10 10 7
-2 12 3 10 10 -1 6 4 11 10 10 7 -2 12 3 10 10 -1 6 4 11 10 10 7 -2 12 3 10
10 -1 6 4 11 10 10 7 -2 12 3 10 10 -1 6 4 11 10 10 7 -2 12 3 10 10 -1 6 4
11 10 10 7 -2 12 3 10 10 -1 6 4 11 10 10 7 -2 12 3 10 10 -1 6 4 11 10 10 7
-2 12 3 10 10 -1 6 4 11 10 10 7 -2 12 3 10 10 -1 6 4 11 10 10 7 -2 12 3 10
10 -1 6 4 11 10 10 7 -2 12 3 10 10 -1 6 4 11 10 10 7 -2 12 3 10 10 -1 6 4
11 10 10 7 -2 12 3 10 10 -1 6 4 11 10 10 7 -2 12 3 10 10 -1 6 4 11 10 10 7
-2 12 3 10 10 -1 6 4 11 10 10 7 -2 12 3 10 10 -1 6 4 11 10 10 7 -2 12 3 10
10 -1 6 4 11 10 10 7 -2 12 3 10 10 -1 6 4 11 10 10 7 -2 12 3 10 10 -1 6 4
11 10 10 7 -2 12 3 10 10 -1 6 4 11 10 10 7 -2 12 3 10 10 -1 6 4 11 10 10 7
-2 12 3 10 10 -1 6 4 11 10 10 7 -2 12 3 10 10 -1 6 4 11 10 10 7 -2 12 3 10
10 -1 6 4 11 10 10 7 -2 12 3 10 10 -1 6 4 11 10 10 7 -2 12 3 10 10 -1 6 4
11 10 10 7 -2 12 3 10 10 -1 6 4 11 11 9 8 -1 11 2 8 7 -4 5 -2 13 4 16 8 5 8
11 0 20 -8 10 -8 15 0 20 8 5 8 10 0 20 -7 9 -8 15 -1 19 7 5 10 361 11 1066
l0 1060 -2500 0 -2500 0 0 -2500z m2258 1969 c49 -12 55 -12 63 4 6 9 17 17
25 17 12 0 14 -10 12 -42 -4 -51 -35 -77 -99 -84 l-44 -5 33 18 c33 17 42 33
18 33 -18 0 -63 37 -77 62 -9 17 -9 20 2 16 8 -3 38 -11 67 -19z m652 -303 c0
-2 3 -11 6 -20 9 -24 -23 -20 -36 4 -9 17 -8 20 10 20 11 0 20 -2 20 -4z m174
-4 c-6 -4 -13 -13 -15 -21 -3 -9 -21 -14 -51 -15 -25 0 -44 2 -41 7 2 4 14 7
26 7 12 1 33 7 47 15 26 15 54 21 34 7z m-1594 -356 c0 -6 7 0 16 12 8 12 19
22 25 22 12 0 12 -47 -1 -55 -5 -3 -7 -12 -3 -20 3 -9 -1 -15 -10 -15 -8 0
-17 5 -19 11 -3 9 -9 9 -25 1 -19 -10 -21 -8 -26 21 -2 17 0 41 6 51 9 19 10
19 23 1 8 -10 14 -23 14 -29z m2529 -373 c5 -10 11 -29 12 -43 3 -20 0 -25
-18 -24 -13 0 -23 -5 -23 -12 0 -6 -7 -14 -15 -18 -8 -3 -15 -1 -15 4 0 6 -9
19 -20 30 -11 11 -20 27 -20 35 0 18 31 20 49 3 11 -11 13 -9 8 9 -4 20 4 30
25 32 4 1 11 -7 17 -16z m-759 -133 c-8 -5 -19 -10 -25 -10 -5 0 -3 5 5 10 8
5 20 10 25 10 6 0 3 -5 -5 -10z m424 -66 c9 -24 2 -26 -12 -4 -7 11 -8 20 -3
20 5 0 12 -7 15 -16z m-2393 -4 c10 -6 19 -16 19 -23 0 -8 -3 -8 -9 1 -4 8
-19 13 -32 12 -42 -4 -56 0 -34 10 27 12 33 12 56 0z m754 0 c-3 -5 -12 -10
-18 -10 -7 0 -6 4 3 10 19 12 23 12 15 0z m1112 -22 c-3 -7 -5 -2 -5 12 0 14
2 19 5 13 2 -7 2 -19 0 -25z m-1198 0 c0 -16 -2 -18 -6 -8 -3 8 -11 18 -17 22
-7 5 -4 8 7 8 11 0 17 -7 16 -22z m-738 -18 c10 0 21 -9 24 -20 4 -14 15 -20
33 -19 l27 1 -25 8 -25 8 28 1 c27 1 36 -12 16 -24 -23 -15 -78 6 -100 38 -12
18 -16 26 -9 20 8 -7 22 -13 31 -13z m849 16 c0 -3 -4 -8 -10 -11 -5 -3 -10
-1 -10 4 0 6 5 11 10 11 6 0 10 -2 10 -4z m850 -6 c0 -5 -2 -10 -4 -10 -3 0
-8 5 -11 10 -3 6 -1 10 4 10 6 0 11 -4 11 -10z m987 -20 c15 0 41 -42 36 -57
-8 -22 -23 -14 -23 12 0 14 -4 25 -10 25 -15 0 -49 37 -42 45 4 3 12 -1 18 -9
6 -9 16 -16 21 -16z m-477 10 c0 -5 -2 -10 -4 -10 -3 0 -8 5 -11 10 -3 6 -1
10 4 10 6 0 11 -4 11 -10z m-516 -13 c3 3 6 1 6 -5 0 -16 -12 -15 -36 4 -18
15 -18 15 2 5 12 -6 24 -7 28 -4z m-717 -3 c-3 -3 -12 -4 -19 -1 -8 3 -5 6 6
6 11 1 17 -2 13 -5z m828 -13 c-3 -6 -11 -8 -17 -5 -6 4 -5 9 3 15 16 10 23 4
14 -10z m842 7 c-2 -7 3 -18 12 -25 11 -9 12 -12 3 -13 -18 0 -4 -20 22 -30
l21 -9 -22 0 c-28 -1 -57 40 -48 69 3 11 9 20 12 20 2 0 3 -6 0 -12z m181 5
c-10 -2 -18 -11 -18 -19 0 -8 -4 -14 -10 -14 -5 0 -10 -9 -10 -20 0 -11 -5
-20 -10 -20 -16 0 -3 53 17 67 9 7 24 12 32 12 13 -1 12 -2 -1 -6z m-408 -19
c0 -8 -4 -12 -10 -9 -5 3 -10 10 -10 16 0 5 5 9 10 9 6 0 10 -7 10 -16z
m-2619 -17 c-13 -13 -26 -3 -16 12 3 6 11 8 17 5 6 -4 6 -10 -1 -17z m49 8 c0
-8 -4 -15 -10 -15 -5 0 -10 7 -10 15 0 8 5 15 10 15 6 0 10 -7 10 -15z m1687
-17 c-3 -7 -5 -2 -5 12 0 14 2 19 5 13 2 -7 2 -19 0 -25z m841 7 c-3 -3 -9 2
-12 12 -6 14 -5 15 5 6 7 -7 10 -15 7 -18z m465 -16 c-6 -22 -43 -47 -43 -29
0 5 5 10 11 10 5 0 7 5 4 10 -3 6 -1 10 4 10 6 0 10 3 10 8 -1 4 -1 14 0 22 1
12 3 13 10 1 5 -7 6 -22 4 -32z m-1853 19 c0 -11 -22 -10 -39 1 -10 7 -7 9 12
8 15 -1 27 -5 27 -9z m434 4 c2 -4 -5 -9 -17 -9 -17 -2 -19 0 -7 7 18 12 18
12 24 2z m-786 -22 c7 -11 19 -20 28 -20 8 0 12 -5 9 -10 -8 -14 -41 5 -55 30
-14 26 1 26 18 0z m42 11 c0 -5 -9 -7 -20 -4 -11 3 -20 7 -20 9 0 2 9 4 20 4
11 0 20 -4 20 -9z m942 -45 l19 -21 -6 28 c-5 17 -3 27 4 27 13 0 15 -49 2
-68 -12 -20 -51 33 -50 67 1 19 3 21 6 7 3 -10 14 -28 25 -40z m-1803 8 c3
-16 1 -17 -13 -5 -19 16 -21 34 -3 29 6 -3 14 -13 16 -24z m41 11 c0 -8 -4
-15 -10 -15 -5 0 -7 7 -4 15 4 8 8 15 10 15 2 0 4 -7 4 -15z m1601 -2 c13 -16
12 -17 -3 -4 -17 13 -22 21 -14 21 2 0 10 -8 17 -17z m-525 -1 c-3 -5 -19 -7
-35 -6 -20 1 -34 -4 -40 -14 -5 -9 -12 -14 -16 -11 -13 13 28 39 61 39 19 0
33 -4 30 -8z m-845 -108 c-6 -13 -16 -24 -22 -24 -8 0 -8 4 1 15 7 8 8 15 3
15 -5 0 -7 17 -6 38 4 37 4 37 -11 12 -9 -14 -16 -38 -16 -55 0 -23 -3 -27
-10 -15 -16 25 -11 66 12 95 l22 29 19 -44 c15 -33 17 -48 8 -66z m949 86 c0
-5 -5 -10 -11 -10 -5 0 -7 5 -4 10 3 6 8 10 11 10 2 0 4 -4 4 -10z m-133 -17
c-9 -9 -20 -13 -24 -9 -4 4 -1 11 7 16 25 16 35 11 17 -7z m-657 -55 c0 -9 -5
-20 -10 -23 -7 -4 -8 3 -4 22 7 25 6 27 -9 14 -10 -7 -17 -21 -18 -30 0 -11
-2 -12 -6 -3 -3 7 3 24 12 39 14 20 19 23 26 12 5 -8 9 -22 9 -31z m2207 20
c-3 -8 -6 -5 -6 6 -1 11 2 17 5 13 3 -3 4 -12 1 -19z m-1110 -10 c-3 -8 -6 -5
-6 6 -1 11 2 17 5 13 3 -3 4 -12 1 -19z m18 -17 c-3 -6 -11 -11 -16 -11 -5 0
-4 6 3 14 14 16 24 13 13 -3z m-215 -11 c-9 -5 -11 -19 -7 -39 4 -20 3 -30 -3
-26 -11 7 -14 68 -4 78 4 4 11 4 16 0 6 -3 5 -9 -2 -13z m999 4 c18 -13 20
-18 10 -25 -19 -12 -66 -11 -74 1 -4 6 5 7 23 4 17 -4 32 -1 36 5 7 10 -13 15
-51 14 -7 -1 -13 3 -13 8 0 15 44 10 69 -7z m-1671 -42 c5 -15 6 -37 1 -50
-10 -26 -19 -29 -17 -4 1 9 0 31 -1 47 -2 28 -2 29 -16 11 -8 -11 -12 -29 -9
-43 4 -12 2 -23 -4 -23 -20 0 -23 50 -5 80 19 33 35 27 51 -18z m1157 18 l29
-30 -41 0 c-24 0 -46 6 -53 15 -12 15 0 22 14 8 6 -6 46 -13 46 -7 0 1 -15 11
-32 23 -27 17 -29 21 -12 21 11 0 33 -13 49 -30z m781 -56 c-8 -30 -53 -61
-67 -47 -7 7 -3 16 12 27 13 9 20 16 16 16 -4 0 0 11 9 25 21 32 8 32 -18 0
-11 -14 -23 -23 -28 -20 -5 3 -10 -5 -13 -17 -3 -21 -4 -22 -12 -4 -5 11 -4
26 2 35 9 14 23 23 83 51 17 8 26 -27 16 -66z m-1226 35 c0 -5 -7 -9 -15 -9
-9 0 -15 9 -15 21 0 18 2 19 15 9 8 -7 15 -16 15 -21z m-851 0 l35 -21 -34
-15 c-34 -14 -80 -11 -80 6 0 4 11 6 25 3 13 -2 33 -1 42 3 17 7 16 8 -2 15
-11 5 -31 6 -45 2 -22 -5 -24 -4 -11 11 18 22 29 21 70 -4z m1721 -26 c0 -35
0 -36 -20 -18 -11 10 -20 28 -19 39 0 20 1 20 9 -1 12 -31 24 -29 18 2 -3 13
-1 22 3 19 5 -3 9 -21 9 -41z m790 12 c-7 -8 -20 -15 -29 -15 -11 0 -8 5 9 14
33 19 35 19 20 1z m-619 -41 c18 -20 21 -29 13 -42 -26 -40 -60 -22 -70 35 -6
39 -5 41 14 36 11 -2 31 -16 43 -29z m-2713 14 c7 -7 12 -22 12 -35 0 -14 6
-23 15 -23 8 0 15 -4 15 -9 0 -12 -27 -22 -44 -15 -9 4 -16 -2 -18 -17 -3 -26
-28 -39 -28 -15 0 9 -5 16 -12 16 -17 0 -48 31 -48 48 0 14 24 13 61 -2 12 -5
14 0 11 29 -4 37 12 47 36 23z m274 -5 c10 -9 18 -23 18 -32 -1 -14 -2 -14
-14 2 -15 19 -31 24 -20 5 5 -8 2 -9 -12 -3 -10 4 -32 9 -49 11 l-30 3 28 -11
c15 -7 27 -15 27 -20 0 -4 14 -8 31 -8 42 0 33 -24 -11 -28 -27 -3 -40 3 -72
35 l-39 38 33 12 c47 17 89 16 110 -4z m1172 -44 c6 -41 4 -51 -18 -75 -13
-16 -28 -25 -32 -21 -5 4 -2 12 5 17 8 4 15 19 16 32 1 12 5 32 9 43 6 16 4
15 -13 -5 -11 -14 -21 -34 -23 -45 -4 -28 -22 -21 -26 10 -3 19 6 35 33 62 19
19 37 34 39 32 2 -2 6 -25 10 -50z m2796 16 c-8 -10 -8 -15 0 -20 8 -5 6 -13
-6 -26 -14 -15 -20 -17 -32 -6 -13 10 -14 9 -7 -2 6 -10 4 -12 -5 -6 -9 6 -11
4 -5 -5 5 -8 4 -11 -3 -6 -6 3 -14 2 -17 -4 -4 -6 -3 -10 2 -9 17 3 24 -1 18
-11 -5 -8 -12 -7 -23 2 -13 11 -14 11 -7 -1 6 -10 4 -12 -5 -6 -9 6 -11 4 -5
-5 5 -8 4 -11 -3 -6 -6 3 -14 2 -17 -4 -4 -6 -3 -10 2 -9 17 3 24 -1 18 -11
-5 -8 -12 -7 -23 2 -13 11 -14 11 -7 -1 6 -10 4 -12 -5 -6 -9 6 -11 4 -5 -5 5
-8 4 -11 -3 -6 -6 3 -14 2 -17 -4 -4 -6 -3 -10 2 -9 17 3 24 -1 18 -11 -5 -8
-12 -7 -23 2 -13 11 -14 11 -7 -1 6 -10 4 -12 -5 -6 -9 6 -11 4 -5 -5 5 -8 4
-11 -3 -6 -6 3 -14 2 -17 -4 -4 -6 -3 -10 2 -9 17 3 24 -1 18 -11 -5 -8 -12
-7 -23 2 -13 11 -14 11 -7 -1 6 -10 4 -12 -5 -6 -9 6 -11 4 -5 -5 5 -8 4 -11
-3 -6 -6 3 -14 2 -17 -4 -4 -6 -3 -10 2 -9 17 3 24 -1 18 -11 -5 -8 -12 -7
-23 2 -13 11 -14 11 -7 -1 6 -10 4 -12 -5 -6 -9 6 -11 4 -5 -5 5 -8 4 -11 -3
-6 -6 3 -14 2 -17 -4 -4 -6 -3 -10 2 -9 17 3 24 -1 18 -11 -5 -8 -12 -7 -23 2
-13 11 -14 11 -7 -1 6 -10 4 -12 -5 -6 -9 6 -11 4 -5 -5 5 -8 4 -11 -3 -6 -6
3 -14 2 -17 -4 -4 -6 -3 -10 2 -9 17 3 24 -1 18 -11 -5 -8 -12 -7 -23 2 -13
11 -14 11 -7 -1 6 -10 4 -12 -5 -6 -9 6 -11 4 -5 -5 5 -8 4 -11 -3 -6 -6 3
-14 2 -17 -4 -4 -6 -3 -10 2 -9 17 3 24 -1 18 -11 -5 -8 -12 -7 -23 2 -13 11
-14 11 -7 -1 6 -10 4 -12 -5 -6 -9 6 -11 4 -5 -5 5 -8 4 -11 -3 -6 -6 3 -14 2
-17 -4 -4 -6 -3 -10 2 -9 17 3 24 -1 18 -11 -5 -8 -12 -7 -23 2 -13 11 -14 11
-7 -1 6 -10 4 -12 -5 -6 -9 6 -11 4 -5 -5 5 -8 4 -11 -3 -6 -6 3 -14 2 -17 -4
-4 -6 -3 -10 2 -9 17 3 24 -1 18 -11 -5 -8 -12 -7 -23 2 -13 11 -14 11 -7 -1
6 -10 4 -12 -5 -6 -9 6 -11 4 -5 -5 5 -8 4 -11 -3 -6 -6 3 -14 2 -17 -4 -4 -6
-3 -10 2 -9 17 3 24 -1 18 -11 -5 -8 -12 -7 -23 2 -13 11 -14 11 -7 -1 6 -10
4 -12 -5 -6 -9 6 -11 4 -5 -5 5 -8 4 -11 -3 -6 -6 3 -14 2 -17 -4 -4 -6 -3
-10 2 -9 17 3 24 -1 18 -11 -5 -8 -12 -7 -23 2 -13 11 -14 11 -7 -1 6 -10 4
-12 -5 -6 -9 6 -11 4 -5 -5 5 -8 4 -11 -3 -6 -6 3 -14 2 -17 -4 -4 -6 -3 -10
2 -9 17 3 24 -1 18 -11 -5 -8 -12 -7 -23 2 -13 11 -14 11 -7 -1 6 -10 4 -12
-5 -6 -9 6 -11 4 -5 -5 5 -8 4 -11 -3 -6 -6 3 -14 2 -17 -4 -4 -6 -3 -10 2 -9
17 3 24 -1 18 -11 -5 -8 -12 -7 -23 2 -13 11 -14 11 -7 -1 6 -10 4 -12 -5 -6
-9 6 -11 4 -5 -5 5 -8 4 -11 -3 -6 -6 3 -14 2 -17 -4 -4 -6 -3 -10 2 -9 17 3
24 -1 18 -11 -5 -8 -12 -7 -23 2 -13 11 -14 11 -7 -1 6 -10 4 -12 -5 -6 -9 6
-11 4 -5 -5 5 -8 4 -11 -3 -6 -6 3 -14 2 -17 -4 -4 -6 -3 -10 2 -9 17 3 24 -1
18 -11 -5 -8 -12 -7 -23 2 -13 11 -14 11 -7 -1 6 -10 4 -12 -5 -6 -9 6 -11 4
-5 -5 5 -8 4 -11 -3 -6 -6 3 -14 2 -17 -4 -4 -6 -3 -10 2 -9 17 3 24 -1 18
-11 -5 -8 -11 -8 -19 -1 -9 8 -13 7 -13 -4 0 -8 5 -11 10 -8 6 3 7 2 4 -4 -3
-5 0 -10 8 -10 8 0 13 5 12 11 -1 6 4 10 10 9 7 -2 12 3 10 10 -1 6 4 11 10
10 7 -2 12 3 10 10 -1 6 4 11 10 10 7 -2 12 3 10 10 -1 6 4 11 10 10 7 -2 12
3 10 10 -1 6 4 11 10 10 7 -2 12 3 10 10 -1 6 4 11 10 10 7 -2 12 3 10 10 -1
6 4 11 10 10 7 -2 12 3 10 10 -1 6 4 11 11 10 6 -2 11 3 10 10 -2 6 3 11 10 9
6 -1 11 4 10 10 -2 7 3 12 10 10 6 -1 11 4 10 10 -2 7 3 12 10 10 6 -1 11 4
10 10 -2 7 3 12 10 10 6 -1 11 4 10 10 -2 7 3 12 10 10 6 -1 11 4 10 10 -2 7
3 12 10 10 6 -1 11 4 10 10 -2 7 3 12 10 10 6 -1 11 4 10 10 -2 7 3 12 10 10
6 -1 11 4 10 10 -2 7 3 12 10 10 6 -1 11 4 10 10 -2 7 3 12 10 10 6 -1 11 4
10 10 -2 7 3 12 10 10 6 -1 11 4 10 10 -2 7 3 12 10 10 6 -1 11 4 10 10 -2 7
3 12 10 10 6 -1 11 4 10 10 -2 7 3 12 10 10 6 -1 11 4 10 10 -2 7 3 12 9 11 7
-2 12 3 10 10 -1 6 4 11 10 10 7 -2 12 3 10 10 -1 6 4 11 10 10 7 -2 12 3 10
10 -1 6 4 11 10 10 7 -2 12 3 10 10 -1 6 4 11 10 10 7 -2 12 3 10 10 -1 6 4
11 10 10 7 -2 12 3 10 10 -1 6 4 11 11 10 6 -2 11 3 10 10 -2 6 3 11 10 10 6
-2 11 3 10 10 -2 6 3 11 10 10 6 -2 11 3 10 10 -2 6 3 11 10 10 6 -2 11 3 10
10 -2 6 3 11 10 10 6 -2 11 3 10 10 -2 6 3 11 10 9 8 -1 11 2 8 7 -4 5 -2 12
3 15 5 4 12 3 15 -2 3 -5 -156 -169 -353 -366 l-357 -357 -19 21 c-22 24 -28
50 -12 47 7 -1 11 4 10 10 -2 7 3 12 10 10 6 -1 11 4 10 10 -2 7 3 12 10 10 6
-1 11 4 10 10 -2 7 3 12 10 10 6 -1 11 4 10 10 -2 7 3 12 10 10 6 -1 11 4 10
10 -2 7 3 12 10 10 6 -1 11 4 10 10 -2 7 3 12 10 10 6 -1 11 4 10 10 -2 7 3
12 10 10 6 -1 11 4 10 10 -2 7 3 12 10 10 6 -1 11 4 9 11 -1 6 4 11 10 10 7
-2 12 3 10 10 -1 6 4 11 10 10 7 -2 12 3 10 10 -1 6 4 11 10 10 7 -2 12 3 10
10 -1 6 4 11 10 10 7 -2 12 3 10 10 -1 6 4 11 10 10 7 -2 12 3 10 10 -1 6 4
11 10 10 7 -2 12 3 10 10 -1 6 4 11 10 10 7 -2 12 3 10 10 -1 6 4 11 10 10 7
-2 12 3 10 10 -1 6 4 11 10 10 7 -2 12 3 10 10 -1 6 4 11 10 10 7 -2 12 3 10
10 -1 6 4 11 10 10 7 -2 12 3 10 10 -1 6 4 11 10 10 7 -2 12 3 10 10 -1 6 4
11 10 10 7 -2 12 3 10 10 -1 6 4 11 10 10 7 -2 12 3 11 9 -2 7 3 12 10 10 6
-1 11 4 10 10 -2 7 3 12 10 10 6 -1 11 4 10 10 -2 7 3 12 10 10 6 -1 11 4 10
10 -2 7 3 12 10 10 6 -1 11 4 10 10 -2 7 3 12 10 10 6 -1 11 4 10 11 -2 6 3
11 10 10 6 -2 11 3 10 10 -2 6 3 11 10 10 6 -2 11 3 10 10 -2 6 3 11 10 10 6
-2 11 3 10 10 -2 6 3 11 10 10 6 -2 11 3 10 10 -2 6 3 11 10 10 6 -2 11 3 10
10 -2 6 3 11 10 10 6 -2 11 3 10 10 -2 6 3 11 10 10 6 -2 11 3 10 10 -2 6 3
11 10 10 6 -2 11 3 10 10 -2 6 3 11 10 10 6 -2 11 3 9 10 -1 8 2 11 8 7 8 -5
8 -11 0 -20z m-1027 -5 c8 -7 -47 -60 -63 -60 -13 0 -40 30 -40 45 0 30 75 40
103 15z m185 12 c13 -9 44 -112 33 -112 -22 0 -83 23 -96 36 -16 17 -21 64 -6
64 5 0 12 -8 15 -17 3 -10 18 -23 32 -30 25 -12 26 -11 10 6 -9 10 -16 23 -16
29 0 7 -6 12 -14 12 -8 0 -18 5 -21 10 -7 12 44 13 63 2z m-2158 -64 c0 -13
-18 -9 -34 8 -22 22 -20 24 9 11 14 -7 25 -15 25 -19z m-357 -3 c-3 -9 -8 -14
-10 -11 -3 3 -2 9 2 15 9 16 15 13 8 -4z m57 -30 c0 -13 -11 -37 -25 -53 l-25
-30 30 -6 c17 -3 30 -10 30 -16 0 -6 -7 -6 -19 1 -23 15 -51 5 -51 -18 0 -10
14 -35 31 -56 17 -20 26 -37 21 -37 -15 0 -61 58 -68 85 -4 18 3 35 30 68 38
46 44 74 24 97 -11 12 -10 12 5 1 9 -7 17 -24 17 -36z m1647 -1 l44 -23 -40
-26 c-50 -31 -101 -33 -127 -4 l-19 21 42 -3 c23 -3 39 -1 37 3 -2 4 10 9 28
11 26 3 22 4 -14 5 -29 1 -48 7 -48 14 0 6 -7 4 -18 -5 -10 -10 -29 -16 -43
-16 -20 1 -21 2 -4 6 11 3 24 12 28 20 12 19 48 33 71 26 11 -3 39 -16 63 -29z
m-1480 -9 c-27 -20 -19 -29 9 -10 29 19 43 13 24 -10 -13 -15 -70 -21 -70 -7
0 17 32 52 42 46 7 -5 5 -11 -5 -19z m119 -30 c-7 -26 -8 -27 -26 -10 -11 10
-20 25 -20 34 0 12 6 9 20 -9 l19 -25 -5 30 c-4 23 -2 27 7 18 7 -7 9 -22 5
-38z m-249 -2 c0 -16 -1 -20 -4 -10 -2 9 -9 15 -14 12 -10 -7 -12 8 -2 18 12
13 19 7 20 -20z m653 -55 c0 -15 -5 -30 -11 -33 -6 -4 -9 -1 -8 6 1 8 -1 27
-6 43 -8 29 -8 29 -17 7 -4 -13 -4 -30 2 -42 12 -21 1 -26 -18 -7 -15 15 -15
50 0 83 l12 26 22 -28 c13 -15 23 -40 24 -55z m-848 55 c20 -18 24 -48 6 -59
-6 -4 -9 -3 -6 2 3 5 -1 23 -9 39 l-14 30 5 -39 c5 -36 4 -38 -11 -24 -10 11
-13 25 -9 42 7 30 13 32 38 9z m1290 -18 c9 -20 8 -33 -7 -66 l-19 -41 -23 28
c-26 32 -28 84 -4 92 10 3 13 -2 9 -20 -3 -14 1 -33 8 -42 10 -15 12 -12 16
19 2 19 0 35 -4 35 -4 0 -8 5 -8 10 0 19 21 10 32 -15z m-1780 2 c-12 -7 -20
-16 -16 -19 3 -4 -4 -21 -16 -37 -12 -17 -16 -31 -10 -31 6 0 13 7 16 15 4 8
12 15 19 15 7 0 16 11 19 25 9 34 26 32 26 -3 0 -34 -29 -64 -83 -86 -36 -14
-38 -14 -33 2 2 9 7 35 11 57 8 50 30 75 64 75 l26 -1 -23 -12z m1226 4 c10
-6 7 -12 -12 -24 -29 -20 -42 -21 -51 -7 -4 6 -3 10 2 9 20 -3 34 2 28 11 -3
5 -13 6 -22 3 -11 -4 -14 -3 -9 5 8 14 45 16 64 3z m768 -6 c6 -16 -12 -45
-27 -45 -10 0 -12 44 -2 53 11 11 23 8 29 -8z m1109 -24 c49 -31 47 -39 -14
-60 -53 -17 -69 -14 -108 25 -20 20 -30 35 -23 32 8 -2 22 4 32 14 26 26 60
22 113 -11z m-1415 1 c0 -19 -18 -42 -32 -42 -10 0 -11 44 -1 53 13 14 33 7
33 -11z m166 -120 c-18 -18 -32 -10 -20 10 5 7 9 22 11 33 2 18 1 18 -9 -2 -6
-13 -15 -23 -19 -23 -5 0 -5 -7 -2 -17 4 -11 3 -14 -5 -9 -22 13 -12 47 21 77
l32 30 3 -42 c2 -28 -2 -47 -12 -57z m-2013 24 c18 -17 23 -61 7 -71 -6 -4
-10 5 -10 20 0 14 -4 24 -9 21 -5 -3 -19 9 -31 27 -12 17 -19 23 -15 12 4 -11
8 -25 9 -32 1 -7 10 -21 21 -33 22 -24 15 -36 -14 -21 -27 15 -38 36 -46 94
l-7 48 38 -25 c22 -14 47 -32 57 -40z m946 38 c17 -14 31 -29 31 -34 0 -4 -17
-10 -37 -13 -37 -6 -73 12 -73 37 0 8 2 8 8 0 6 -10 72 -25 72 -17 0 2 -16 11
-35 19 -20 8 -33 19 -30 24 10 17 32 11 64 -16z m1966 -9 c-1 -40 0 -39 -47
-58 l-38 -16 0 31 c0 33 24 68 47 68 17 0 17 -5 -4 -38 -17 -27 -17 -27 3 -7
11 11 23 28 27 38 10 26 14 21 12 -18z m185 -29 c-1 -12 -6 -34 -13 -50 l-13
-29 -27 32 c-31 37 -33 53 -12 71 8 7 15 19 15 26 0 10 8 7 25 -8 14 -12 25
-31 25 -42z m-2572 22 c7 -7 12 -19 12 -27 0 -11 -4 -10 -15 5 -8 10 -15 14
-15 9 0 -6 -16 -10 -37 -8 -36 3 -36 2 -13 -8 14 -7 33 -12 42 -13 31 -2 24
-21 -8 -24 -22 -2 -40 5 -63 24 l-33 27 29 13 c36 16 86 17 101 2z m622 -13
c0 -2 -15 -2 -32 0 l-33 3 30 -13 c24 -11 27 -15 13 -20 -9 -4 -28 1 -43 11
l-27 17 29 12 c24 11 63 5 63 -10z m1007 8 c4 -10 -2 -23 -18 -35 -26 -22 -35
-12 -25 27 7 28 33 33 43 8z m-1889 -15 c1 -7 4 -26 8 -43 7 -27 6 -29 -9 -16
-17 14 -24 71 -9 71 5 0 9 -6 10 -12z m42 -32 c0 -25 -5 -48 -11 -51 -16 -11
-19 -1 -10 32 5 17 5 37 -1 46 -7 13 -5 17 7 17 11 0 15 -11 15 -44z m1926 33
c9 -15 23 -79 17 -79 -17 0 -63 34 -68 51 -10 31 34 55 51 28z m201 -23 c4 -7
15 -16 23 -19 12 -4 11 -6 -2 -6 -10 -1 -18 -8 -18 -16 0 -30 -79 -31 -122 -1
-18 13 -17 15 14 34 38 24 93 28 105 8z m-877 -21 c6 -8 10 -20 7 -27 -4 -9
-6 -7 -6 3 -1 16 -20 29 -42 29 -5 0 -18 -9 -29 -20 -11 -11 -20 -16 -20 -11
0 34 67 54 90 26z m-990 -25 c-8 -5 -11 -10 -6 -10 4 0 1 -11 -8 -25 -9 -14
-14 -25 -11 -25 10 0 30 23 40 45 8 19 9 19 13 -3 4 -26 -19 -57 -49 -65 -16
-4 -19 0 -19 28 0 34 21 65 43 65 7 0 6 -4 -3 -10z m595 -15 c-16 -14 -27 -25
-22 -25 4 0 0 -15 -9 -32 l-17 -33 23 20 c12 11 26 30 31 43 10 26 29 21 29
-8 0 -26 -45 -76 -78 -88 l-27 -9 3 51 c4 55 28 92 66 99 11 2 23 5 26 5 3 1
-8 -10 -25 -23z m1001 -9 c10 -8 19 -25 19 -39 1 -20 -4 -24 -22 -22 -29 3
-32 5 -43 44 -7 26 -6 31 9 31 9 0 26 -6 37 -14z m334 -1 c0 -3 -7 -18 -16
-33 l-16 -27 20 23 c24 26 32 28 32 5 0 -17 -47 -73 -62 -73 -15 0 -8 73 9 92
15 17 33 24 33 13z m-2533 -37 c7 -6 13 -20 12 -32 0 -20 -1 -21 -9 -1 -5 11
-9 16 -9 11 -1 -4 -13 -1 -27 9 -37 24 -40 13 -4 -15 35 -27 39 -43 9 -38 -23
3 -53 39 -64 75 -5 20 -4 21 37 11 23 -5 48 -14 55 -20z m3103 -51 c0 -33 -39
-77 -70 -77 -11 0 -20 -4 -20 -10 0 -5 -5 -10 -10 -10 -6 0 -10 6 -9 13 1 6
-3 24 -10 38 -16 33 -9 47 49 92 l45 35 12 -26 c7 -15 12 -40 13 -55z m384 25
l-26 -47 34 38 c18 20 39 37 46 37 20 0 14 -17 -8 -23 -20 -5 -28 -27 -10 -27
21 0 8 -40 -25 -75 -35 -38 -55 -39 -55 -4 0 15 -5 19 -19 14 -20 -6 -51 22
-35 33 5 4 14 20 19 36 13 38 42 57 55 36 10 -17 20 -10 25 17 2 10 4 19 4 21
1 2 6 0 11 -3 6 -4 0 -25 -16 -53z m-184 24 c0 -41 -41 -79 -88 -82 l-40 -2 9
30 c4 17 11 33 14 37 5 4 70 30 103 40 1 1 2 -10 2 -23z m-3066 -23 c-10 -45
-33 -73 -57 -72 -21 0 -21 1 -2 9 11 5 16 9 11 9 -5 1 1 12 14 26 31 33 10 32
-24 -1 -24 -25 -26 -25 -26 -7 0 24 18 41 57 53 15 4 29 9 31 9 1 1 0 -11 -4
-26z m1227 -3 c28 -15 23 -28 -8 -23 -27 3 -27 3 -5 -7 23 -10 22 -30 -2 -30
-16 0 -66 38 -66 50 0 5 12 11 28 13 15 2 28 5 30 6 2 0 12 -4 23 -9z m1379
-59 c-6 -68 -9 -71 -41 -74 -13 0 -28 -6 -32 -12 -5 -6 -7 -4 -6 5 1 8 -1 23
-5 32 -16 35 -2 63 44 86 24 12 45 22 45 22 0 0 -2 -27 -5 -59z m-2463 -27 c1
-16 0 -23 -3 -16 -3 7 -17 25 -31 40 l-25 27 13 -30 c7 -17 17 -36 22 -42 13
-17 -17 -17 -31 0 -15 18 -25 64 -18 83 10 26 70 -25 73 -62z m388 65 c11 -16
1 -19 -13 -3 -7 8 -8 14 -3 14 5 0 13 -5 16 -11z m1637 -8 c14 -12 -23 -52
-44 -49 -31 4 -45 32 -28 53 13 16 54 14 72 -4z m-1907 -90 c-12 -12 -19 -13
-33 -5 -29 19 -26 49 10 79 l33 28 3 -43 c2 -29 -2 -48 -13 -59z m180 79 c3
-5 -1 -10 -9 -10 -9 0 -16 -5 -16 -11 0 -5 4 -8 9 -4 5 3 12 1 16 -5 11 -18
-42 -10 -59 9 -17 18 -17 19 1 24 32 8 52 7 58 -3z m743 -52 c-6 -16 -36 -34
-44 -26 -3 4 -4 14 -1 23 7 17 51 21 45 3z m-702 -13 c7 -18 -12 -45 -32 -45
-7 0 -11 7 -9 15 3 8 7 22 10 30 6 19 24 19 31 0z m-711 -47 c46 -17 55 -27
54 -67 -1 -33 -2 -34 -9 -11 -4 14 -8 21 -9 16 -1 -6 -15 3 -32 20 -30 28 -31
28 -19 4 7 -14 22 -33 34 -42 25 -20 16 -33 -18 -24 -29 7 -46 35 -57 89 -6
33 -4 37 10 32 9 -4 30 -12 46 -17z m865 9 c-14 -11 -26 -57 -15 -57 3 0 10
11 15 25 11 28 25 32 34 9 6 -16 -43 -74 -62 -74 -5 0 -13 17 -17 37 -6 31 -3
40 15 55 12 10 27 18 34 18 6 -1 5 -6 -4 -13z m2396 -24 l55 -36 -33 -15 c-66
-28 -148 -9 -148 35 0 7 -6 13 -14 13 -8 0 -18 5 -22 12 -5 7 -2 9 9 5 8 -3
21 1 27 9 21 24 67 16 126 -23z m-2256 1 c0 -9 -10 -14 -32 -13 -24 1 -27 3
-10 6 12 2 22 11 22 19 0 8 5 12 10 9 6 -3 10 -13 10 -21z m1152 -8 c-5 -40
-34 -71 -57 -62 -30 11 -14 59 25 78 19 10 35 18 35 18 1 0 -1 -15 -3 -34z
m-718 2 c22 -32 20 -35 -19 -30 -38 5 -50 15 -41 37 8 22 43 18 60 -7z m96
-18 c0 -5 -5 -10 -11 -10 -5 0 -7 5 -4 10 3 6 8 10 11 10 2 0 4 -4 4 -10z
m-595 -46 c-23 -17 -34 -2 -14 22 9 11 15 12 23 4 8 -8 6 -15 -9 -26z m65 10
c0 -8 -5 -12 -10 -9 -6 4 -8 11 -5 16 9 14 15 11 15 -7z m1573 -7 c16 15 47
-31 47 -70 0 -38 -1 -39 -18 -24 -10 10 -24 17 -30 17 -16 0 -30 31 -29 62 1
18 6 23 13 17 6 -5 14 -6 17 -2z m-2295 -5 c17 -12 4 -42 -18 -42 -10 0 -26 8
-36 17 -15 16 -15 17 2 24 25 10 37 10 52 1z m1269 -62 c-3 -11 -1 -20 3 -20
5 0 11 -8 14 -17 3 -10 3 -1 0 20 -5 41 4 47 31 17 13 -15 16 -30 13 -65 -3
-25 -8 -49 -12 -52 -3 -4 -22 9 -41 27 -36 35 -46 75 -23 98 17 17 21 15 15
-8z m-1231 -11 c7 -13 -19 -43 -34 -38 -12 5 3 49 17 49 5 0 13 -5 17 -11z
m2578 -15 c11 -28 6 -44 -13 -44 -23 0 -32 19 -19 43 11 21 24 22 32 1z
m-2431 -1 c3 -5 -8 -8 -23 -8 -15 0 -26 3 -23 8 2 4 13 7 23 7 10 0 21 -3 23
-7z m907 -37 c0 -17 -2 -18 -10 -6 -8 13 -10 13 -10 1 0 -11 -3 -12 -11 -4 -6
6 -8 21 -4 33 5 17 10 19 21 9 8 -6 14 -21 14 -33z m816 -12 c-3 -8 -12 -14
-21 -14 -21 0 -19 40 3 56 15 11 17 10 20 -7 2 -11 1 -27 -2 -35z m876 39 c4
-2 -8 -18 -27 -34 -45 -40 -88 -38 -93 4 -3 21 2 29 20 36 21 9 81 5 100 -6z
m-3009 -12 c14 -6 29 -23 35 -41 l11 -31 -30 31 c-17 16 -36 30 -42 30 -7 0 1
-12 17 -26 32 -28 28 -43 -6 -27 -13 6 -28 25 -35 42 -10 28 -9 31 7 31 10 0
30 -4 43 -9z m1409 -21 c-19 -34 -62 -42 -62 -12 0 26 20 42 52 42 l27 0 -17
-30z m468 15 c17 -20 3 -53 -30 -70 -38 -20 -37 -21 -32 23 7 58 35 80 62 47z
m496 -8 c42 7 58 -5 88 -68 l23 -49 -34 0 c-51 0 -101 25 -109 54 -3 14 -3 29
0 35 4 5 2 12 -4 16 -5 3 -10 12 -9 18 0 9 2 9 5 0 3 -7 18 -10 40 -6z m-2470
-68 c13 -11 24 -80 12 -73 -4 3 -8 15 -8 26 0 12 -3 18 -7 15 -3 -4 -17 3 -30
15 -13 12 -23 16 -23 10 0 -7 11 -22 25 -34 31 -27 32 -40 4 -36 -27 4 -57 43
-65 85 l-6 31 43 -15 c24 -8 49 -19 55 -24z m2307 27 c25 -19 22 -24 -19 -32
-39 -7 -60 5 -51 30 8 19 46 20 70 2z m97 -46 c-12 -29 -14 -30 -31 -14 -24
21 -24 50 -1 63 12 7 21 6 31 -4 12 -11 12 -19 1 -45z m398 -6 c-7 -15 -23
-30 -34 -35 -19 -6 -22 -4 -22 19 0 31 14 51 43 62 26 10 31 -10 13 -46z m-90
6 c26 -25 28 -38 6 -47 -19 -7 -44 21 -44 49 0 23 11 23 38 -2z m-1848 -22 c0
-5 -4 -7 -8 -4 -4 2 -14 1 -22 -5 -12 -7 -10 -9 8 -9 13 0 20 -4 17 -10 -10
-16 -41 -11 -60 10 -17 19 -17 20 6 28 26 10 59 5 59 -10z m1400 -95 c0 -27
-10 -34 -31 -22 -19 10 -25 43 -13 73 5 13 9 12 25 -8 10 -13 19 -33 19 -43z
m800 46 c11 -19 9 -20 -22 -17 -22 2 -34 9 -36 21 -5 26 44 23 58 -4z m-1960
-80 c0 -10 -5 -21 -12 -25 -16 -10 -36 22 -30 51 4 25 5 25 23 9 11 -9 19 -25
19 -35z m-1149 25 c9 -11 10 -20 2 -32 -16 -26 -38 -25 -69 2 -25 22 -27 27
-14 36 23 15 66 12 81 -6z m2659 11 c0 -26 -32 -73 -52 -77 -45 -9 -31 53 17
72 24 10 35 12 35 5z m-1920 -35 c8 -16 8 -20 -4 -20 -25 0 -46 12 -46 26 0
21 38 17 50 -6z m847 -10 c2 -23 -37 -53 -62 -48 -13 3 -12 7 5 36 22 36 55
43 57 12z m883 -15 c-10 -44 -24 -62 -53 -67 -19 -4 -23 0 -21 21 2 47 4 50
32 65 43 24 51 21 42 -19z m-186 0 c7 -18 -21 -27 -45 -15 -24 13 -25 27 -1
32 23 6 39 -1 46 -17z m266 -10 c0 -8 -4 -15 -8 -15 -13 0 -32 23 -32 37 0 11
5 11 20 3 11 -6 20 -17 20 -25z m-895 14 c4 -5 4 -22 0 -36 -6 -24 -7 -25 -20
-7 -8 11 -15 27 -15 37 0 19 25 23 35 6z m-1265 -68 c0 -5 -3 -17 -7 -26 -5
-14 -8 -12 -20 11 l-13 29 5 -27 c6 -32 -9 -37 -25 -9 -11 22 -14 74 -3 84 7
8 63 -48 63 -62z m288 44 c1 -11 -4 -29 -12 -40 -14 -17 -17 -18 -26 -5 -5 8
-10 28 -10 43 0 24 4 28 23 25 13 -2 23 -11 25 -23z m522 5 c-12 -22 -25 -26
-35 -10 -9 15 4 30 26 30 17 0 18 -3 9 -20z m809 -1 c11 -11 21 -26 21 -34 0
-7 6 -16 13 -19 8 -4 7 -5 -3 -4 -8 1 -23 -2 -34 -7 -29 -12 -67 6 -92 46
l-22 36 48 1 c35 1 53 -5 69 -19z m-1161 -1 c31 -31 -6 -78 -60 -78 -26 0 -27
1 -16 28 11 27 44 62 57 62 4 0 12 -5 19 -12z m2172 5 c-1 -18 -29 -43 -48
-43 -20 0 -23 14 -9 38 9 13 57 17 57 5z m-2985 -23 c8 -25 -10 -50 -36 -50
-23 0 -24 18 -3 48 19 27 31 28 39 2z m565 -29 c0 -23 -28 -54 -41 -46 -15 10
-10 43 9 54 25 15 32 13 32 -8z m441 3 c12 -15 11 -16 -11 -10 l-25 7 25 -15
25 -15 -25 -1 c-14 0 -33 9 -42 19 -16 18 -16 20 0 24 31 9 40 7 53 -9z m159
-13 c0 -12 -20 -25 -27 -18 -7 7 6 27 18 27 5 0 9 -4 9 -9z m148 -53 c-2 -17
-9 -34 -17 -36 -10 -3 -12 0 -8 12 4 10 3 15 -3 11 -6 -3 -10 -16 -11 -28 0
-21 -1 -21 -9 -2 -14 33 -11 50 13 77 26 30 40 16 35 -34z m714 3 c-5 -35 -26
-56 -65 -65 -26 -6 -28 -5 -22 16 13 42 34 67 62 71 16 2 28 5 29 6 0 0 -1
-12 -4 -28z m-1383 -25 l22 -23 -23 -7 c-41 -11 -67 -6 -77 12 -23 43 41 57
78 18z m721 9 c0 -16 -27 -32 -37 -22 -3 4 -3 13 0 22 8 20 37 20 37 0z m-582
-21 c39 -27 21 -84 -22 -68 -25 10 -68 72 -53 77 24 10 53 7 75 -9z m120 -18
c2 -10 -1 -23 -7 -29 -16 -16 -34 6 -26 33 8 24 28 22 33 -4z m-744 -12 c20
-19 6 -50 -28 -65 -18 -9 -32 -6 -66 11 l-42 22 33 23 c40 28 81 32 103 9z
m928 -3 c15 -17 14 -20 -7 -31 -19 -10 -28 -9 -54 6 -23 14 -28 21 -19 31 16
19 61 16 80 -6z m-802 -31 c0 -5 -8 -10 -17 -10 -15 0 -16 2 -3 10 19 12 20
12 20 0z m-51 -57 c10 -19 -2 -50 -28 -70 -26 -20 -31 -15 -31 25 0 56 37 84
59 45z m501 -25 c0 -15 -32 -22 -40 -8 -4 7 -5 21 -3 32 5 18 7 18 24 2 11 -9
19 -21 19 -26z m-309 20 l26 -12 -21 -23 c-22 -26 -33 -28 -72 -13 l-27 11 23
24 c27 28 36 30 71 13z m779 -8 c22 -13 21 -50 0 -50 -19 0 -33 14 -43 43 -7
19 17 24 43 7z m-701 -95 c17 -10 13 -54 -8 -83 -10 -15 -20 -34 -23 -41 -2
-9 -13 4 -27 32 -26 54 -22 96 9 104 11 3 20 13 21 22 0 11 3 10 9 -5 5 -12
13 -25 19 -29z m671 -22 c0 -6 -7 -19 -16 -28 -12 -12 -19 -13 -30 -4 -19 15
-18 35 4 71 l17 29 12 -28 c7 -15 12 -33 13 -40z m200 8 c0 -10 -9 -21 -20
-24 -22 -6 -27 12 -8 31 17 17 28 15 28 -7z m-280 -29 c26 -21 20 -42 -11 -42
-16 0 -39 33 -39 56 0 11 30 2 50 -14z m-260 -38 c0 -20 -18 -54 -29 -54 -17
0 -31 50 -21 71 9 15 15 17 30 9 11 -6 20 -18 20 -26z m-178 -22 c-6 -2 -12
-14 -12 -27 0 -29 -15 -41 -62 -49 -45 -8 -48 2 -18 51 18 29 24 33 62 31 23
-1 37 -3 30 -6z m273 -40 c-3 -28 -12 -37 -44 -47 -22 -7 -23 -5 -17 21 10 38
23 53 46 51 13 -1 17 -8 15 -25z m221 -12 c-1 -21 -21 -40 -43 -40 -19 0 -2
41 21 50 11 5 22 9 22 9 1 1 1 -8 0 -19z m-372 -82 l-18 -40 -18 22 c-23 28
-23 55 -1 84 l18 23 18 -24 c19 -24 19 -25 1 -65z m242 77 c4 -8 3 -22 0 -31
-5 -13 -9 -14 -21 -4 -8 7 -15 21 -15 31 0 23 28 25 36 4z m249 -57 c4 -15 4
-37 0 -48 -6 -19 -7 -19 -41 6 -29 23 -34 32 -32 63 l3 36 32 -14 c22 -10 34
-24 38 -43z m195 8 c0 -13 -7 -29 -15 -36 -12 -10 -15 -7 -21 14 -6 27 11 60
27 50 5 -3 9 -16 9 -28z m188 -963 c-175 -175 -255 -249 -263 -243 -7 6 -15 7
-19 3 -12 -13 -53 -10 -53 3 0 7 5 12 11 11 6 -1 10 4 8 11 -1 6 4 11 10 10 7
-2 12 3 10 10 -1 6 4 11 10 10 7 -2 12 3 10 10 -1 6 4 11 10 10 7 -2 12 3 10
10 -1 6 4 11 10 10 7 -2 12 3 10 10 -1 6 4 11 10 10 7 -2 12 3 10 10 -1 6 4
11 10 10 7 -2 12 3 10 10 -1 6 4 11 10 10 7 -2 12 3 10 10 -1 6 4 11 10 10 7
-2 12 3 10 10 -1 6 4 11 10 10 7 -2 12 3 11 9 -2 7 3 12 10 10 6 -1 11 4 10
10 -2 7 3 12 10 10 6 -1 11 4 10 10 -2 7 3 12 10 10 6 -1 11 4 10 10 -2 7 3
12 10 10 6 -1 11 4 10 10 -2 7 3 12 10 10 6 -1 11 4 10 10 -2 7 3 12 10 10 6
-1 11 4 10 10 -2 7 3 12 10 10 6 -1 11 4 10 11 -2 6 3 11 10 10 6 -2 11 3 9
10 -1 6 4 11 10 10 7 -2 12 3 11 10 -2 6 3 11 10 10 6 -2 11 3 10 10 -2 6 3
11 10 10 6 -2 11 3 10 10 -2 6 3 11 10 10 6 -2 11 3 10 10 -2 6 3 11 10 10 6
-2 11 3 10 10 -2 6 3 11 10 10 6 -2 11 2 10 7 -1 6 21 10 53 10 l54 0 -252
-252z"/>
<path d="M3414 2890 c3 -8 9 -23 12 -32 4 -10 10 -18 15 -18 17 0 9 27 -12 46
-15 13 -20 14 -15 4z"/>
<path d="M4951 2846 c-10 -11 -9 -14 1 -12 14 2 23 15 15 22 -2 2 -10 -2 -16
-10z"/>
<path d="M3860 2848 c0 -11 32 -10 50 2 11 8 7 10 -17 8 -18 -1 -33 -6 -33
-10z"/>
<path d="M3005 2719 c-4 -6 -5 -12 -2 -15 2 -3 7 2 10 11 7 17 1 20 -8 4z"/>
<path d="M4033 2692 c-8 -5 -2 -12 16 -19 19 -7 34 -7 42 -1 11 8 11 9 -1 5
-8 -2 -22 2 -30 9 -9 7 -21 10 -27 6z"/>
<path d="M2696 2693 c-6 -14 -5 -15 5 -6 7 7 10 15 7 18 -3 3 -9 -2 -12 -12z"/>
<path d="M3920 2621 c0 -25 6 -27 13 -6 4 8 2 17 -3 20 -6 4 -10 -3 -10 -14z"/>
<path d="M3070 2602 c0 -5 10 -17 22 -28 l21 -19 -18 28 c-18 28 -25 33 -25
19z"/>
<path d="M3260 2570 l-25 -6 24 -8 c13 -5 27 -4 33 2 14 14 -2 20 -32 12z"/>
<path d="M3010 2496 c0 -2 7 -9 15 -16 9 -7 15 -8 15 -2 0 5 -7 12 -15 16 -8
3 -15 4 -15 2z"/>
<path d="M3860 2395 c-7 -8 -8 -15 -2 -15 5 0 15 7 22 15 7 8 8 15 2 15 -5 0
-15 -7 -22 -15z"/>
<path d="M3634 2376 c-5 -6 -13 -19 -16 -28 -5 -12 -3 -15 8 -11 8 3 12 8 10
11 -3 3 -1 11 6 19 13 17 7 25 -8 9z"/>
<path d="M3175 2400 c-7 -12 2 -12 30 0 19 8 19 9 -2 9 -12 1 -25 -3 -28 -9z"/>
<path d="M1311 2372 c-13 -25 -14 -42 -2 -42 8 0 23 52 16 58 -2 2 -8 -5 -14
-16z"/>
<path d="M1536 2333 c-6 -14 -5 -15 5 -6 7 7 10 15 7 18 -3 3 -9 -2 -12 -12z"/>
<path d="M2955 2250 c-10 -11 -14 -20 -9 -20 5 0 15 9 22 20 7 11 11 20 9 20
-2 0 -12 -9 -22 -20z"/>
<path d="M2230 2282 c0 -6 9 -12 20 -15 11 -3 20 -3 20 -1 0 2 -9 8 -20 14
-11 6 -20 7 -20 2z"/>
<path d="M3417 2189 c7 -7 15 -10 18 -7 3 3 -2 9 -12 12 -14 6 -15 5 -6 -5z"/>
<path d="M1098 2193 c6 -2 18 -2 25 0 6 3 1 5 -13 5 -14 0 -19 -2 -12 -5z"/>
<path d="M1145 2130 c-3 -5 -1 -10 4 -10 6 0 11 5 11 10 0 6 -2 10 -4 10 -3 0
-8 -4 -11 -10z"/>
<path d="M2757 2093 c-4 -3 -7 -11 -7 -17 0 -6 5 -5 12 2 6 6 9 14 7 17 -3 3
-9 2 -12 -2z"/>
<path d="M3276 2045 c4 -8 11 -15 16 -15 6 0 5 6 -2 15 -7 8 -14 15 -16 15 -2
0 -1 -7 2 -15z"/>
<path d="M730 1850 c19 -13 30 -13 30 0 0 6 -10 10 -22 10 -19 0 -20 -2 -8
-10z"/>
<path d="M2309 1823 c-13 -16 -12 -17 4 -4 9 7 17 15 17 17 0 8 -8 3 -21 -13z"/>
<path d="M1411 1804 c0 -11 3 -14 6 -6 3 7 2 16 -1 19 -3 4 -6 -2 -5 -13z"/>
<path d="M2730 1776 c0 -2 9 -6 20 -9 11 -3 20 -1 20 4 0 5 -9 9 -20 9 -11 0
-20 -2 -20 -4z"/>
<path d="M1572 1779 c-12 -19 -11 -19 7 -10 26 14 36 31 19 31 -7 0 -19 -9
-26 -21z"/>
<path d="M769 1773 c-13 -16 -12 -17 4 -4 9 7 17 15 17 17 0 8 -8 3 -21 -13z"/>
<path d="M1385 1670 c27 -12 43 -12 25 0 -8 5 -22 9 -30 9 -10 0 -8 -3 5 -9z"/>
<path d="M1553 1637 c15 -7 24 -17 20 -22 -5 -4 -2 -5 5 0 17 9 5 21 -28 29
-23 5 -23 5 3 -7z"/>
<path d="M905 1610 c-30 -8 -30 -8 8 -9 20 0 37 4 37 9 0 11 -2 11 -45 0z"/>
<path d="M1820 1626 c0 -2 11 -6 25 -8 14 -3 25 -1 25 3 0 5 -11 9 -25 9 -14
0 -25 -2 -25 -4z"/>
<path d="M1000 1535 c0 -8 2 -15 4 -15 2 0 6 7 10 15 3 8 1 15 -4 15 -6 0 -10
-7 -10 -15z"/>
<path d="M1195 1520 c-19 -8 -19 -9 3 -9 12 -1 22 4 22 9 0 6 -1 10 -2 9 -2 0
-12 -4 -23 -9z"/>
<path d="M1260 1421 c0 -25 6 -27 13 -6 4 8 2 17 -3 20 -6 4 -10 -3 -10 -14z"/>
<path d="M1396 1304 c-24 -23 -19 -27 9 -8 14 9 25 18 25 20 0 10 -20 3 -34
-12z"/>
<path d="M1551 1244 c0 -11 3 -14 6 -6 3 7 2 16 -1 19 -3 4 -6 -2 -5 -13z"/>
<path d="M2370 263 c-135 -136 -238 -242 -230 -236 8 5 27 9 42 8 15 -1 26 3
25 9 -1 6 4 10 11 8 6 -1 11 4 10 10 -2 7 3 12 10 10 6 -1 11 4 10 10 -2 7 3
12 10 10 6 -1 11 4 10 10 -2 7 3 12 10 10 6 -1 11 4 10 10 -2 7 3 12 10 10 6
-1 11 4 10 10 -2 7 3 12 10 10 6 -1 11 4 10 10 -2 7 3 12 10 10 6 -1 11 4 10
10 -2 7 3 12 9 11 7 -2 12 3 10 10 -1 6 4 11 10 10 7 -2 12 3 10 10 -1 6 4 11
10 10 7 -2 12 3 10 10 -1 6 4 11 10 10 7 -2 12 3 10 10 -1 6 4 11 10 10 7 -2
12 3 10 10 -1 6 4 11 10 10 7 -2 12 3 10 10 -1 6 4 11 10 10 7 -2 12 3 10 10
-1 6 4 11 11 9 6 -1 11 4 10 10 -2 7 3 12 10 10 6 -1 11 4 10 10 -2 7 3 12 10
10 6 -1 11 4 10 10 -2 7 3 12 10 10 6 -1 11 4 10 10 -2 7 3 12 10 11 6 -2 11
3 10 10 -2 6 3 11 10 10 6 -2 11 3 10 10 -2 6 3 11 10 10 6 -2 11 3 10 10 -2
6 3 11 10 10 6 -2 11 3 10 10 -2 6 3 11 10 9 8 -1 11 2 7 8 -5 8 -11 8 -19 1
-8 -7 -16 -7 -22 -1 -6 6 -99 -80 -254 -237z m40 2 c-122 -122 -228 -222 -237
-222 -8 0 88 103 213 228 125 125 232 225 237 222 5 -3 -91 -105 -213 -228z"/>
<path d="M2569 443 c-13 -16 -12 -17 4 -4 16 13 21 21 13 21 -2 0 -10 -8 -17
-17z"/>
<path d="M2529 403 c-13 -16 -12 -17 4 -4 16 13 21 21 13 21 -2 0 -10 -8 -17
-17z"/>
<path d="M2489 363 c-13 -16 -12 -17 4 -4 16 13 21 21 13 21 -2 0 -10 -8 -17
-17z"/>
<path d="M2449 323 c-13 -16 -12 -17 4 -4 16 13 21 21 13 21 -2 0 -10 -8 -17
-17z"/>
<path d="M2409 283 c-13 -16 -12 -17 4 -4 16 13 21 21 13 21 -2 0 -10 -8 -17
-17z"/>
<path d="M2369 243 c-13 -16 -12 -17 4 -4 16 13 21 21 13 21 -2 0 -10 -8 -17
-17z"/>
<path d="M2329 203 c-13 -16 -12 -17 4 -4 16 13 21 21 13 21 -2 0 -10 -8 -17
-17z"/>
<path d="M2289 163 c-13 -16 -12 -17 4 -4 16 13 21 21 13 21 -2 0 -10 -8 -17
-17z"/>
<path d="M2249 123 c-13 -16 -12 -17 4 -4 16 13 21 21 13 21 -2 0 -10 -8 -17
-17z"/>
<path d="M2209 83 c-13 -16 -12 -17 4 -4 16 13 21 21 13 21 -2 0 -10 -8 -17
-17z"/>
<path d="M2438 3123 c7 -3 16 -2 19 1 4 3 -2 6 -13 5 -11 0 -14 -3 -6 -6z"/>
<path d="M2758 2223 c7 -3 16 -2 19 1 4 3 -2 6 -13 5 -11 0 -14 -3 -6 -6z"/>
<path d="M3600 2180 c-9 -6 -10 -10 -3 -10 6 0 15 5 18 10 8 12 4 12 -15 0z"/>
<path d="M4129 2003 c-6 -7 -8 -13 -4 -13 4 0 2 -6 -4 -14 -8 -10 -8 -16 3
-25 10 -8 16 -9 21 -1 3 6 11 8 16 4 5 -3 8 0 7 8 -2 7 3 12 10 11 18 -4 15
14 -4 21 -8 3 -13 10 -10 14 9 14 -23 10 -35 -5z m25 -34 c-16 -18 -40 -17
-28 2 3 5 11 6 17 2 8 -5 8 -2 0 9 -16 19 -5 32 14 16 11 -9 11 -14 -3 -29z"/>
<path d="M4092 1934 c-7 -8 -8 -14 -3 -14 10 0 25 19 20 25 -2 1 -10 -3 -17
-11z"/>
<path d="M3963 1788 c1 -7 -4 -12 -10 -10 -7 1 -12 -2 -10 -7 1 -5 -2 -8 -8
-7 -5 0 -9 5 -7 10 3 10 -29 -13 -40 -29 -4 -5 -16 -11 -28 -11 -45 -3 -50 -4
-50 -14 0 -6 6 -10 14 -8 8 2 14 -1 13 -7 -1 -5 -5 -9 -8 -8 -3 1 -6 -4 -6
-12 0 -8 5 -13 11 -12 6 1 10 -3 9 -9 -1 -6 4 -11 12 -11 8 0 13 5 12 11 -1 6
4 10 11 9 6 -2 11 3 10 10 -2 6 3 11 10 10 6 -2 11 3 10 10 -2 6 3 11 10 10 6
-2 11 3 10 10 -2 6 3 11 10 10 6 -2 11 3 10 10 -2 6 3 11 10 10 6 -2 11 3 10
10 -2 6 3 11 11 9 12 -3 12 0 1 12 -15 19 -21 20 -17 4z m-69 -79 c-20 -21
-41 -36 -46 -33 -13 8 2 25 15 17 7 -3 4 3 -6 15 -19 21 -7 25 23 8 8 -5 12
-5 7 -1 -9 11 23 46 35 39 6 -4 -7 -24 -28 -45z"/>
<path d="M3336 1737 c-95 -38 -109 -55 -80 -94 46 -62 224 -160 224 -123 0 6
-4 10 -10 10 -5 0 -9 6 -7 12 1 7 -8 14 -19 16 -33 5 -56 36 -52 70 l3 30 35
-17 c28 -13 36 -23 38 -48 2 -17 10 -37 18 -43 20 -17 17 -47 -5 -60 -23 -12
-97 16 -143 55 -40 34 -50 31 -34 -7 8 -18 17 -40 19 -49 3 -9 21 -19 40 -23
41 -8 55 -35 59 -108 1 -26 4 -46 7 -45 3 1 7 -1 9 -5 5 -18 1 -20 -15 -7 -14
12 -16 12 -8 0 6 -10 4 -12 -5 -6 -9 6 -11 4 -5 -5 5 -8 4 -11 -3 -6 -6 3 -14
2 -17 -4 -4 -6 -3 -9 2 -8 4 2 9 0 11 -4 5 -18 1 -20 -15 -7 -14 12 -16 12 -8
0 6 -10 4 -12 -5 -6 -8 5 -11 4 -6 -3 7 -12 -19 -10 -31 2 -4 4 -1 6 7 4 8 -1
14 3 12 10 -1 6 4 11 10 10 7 -2 12 3 10 10 -1 6 4 11 10 10 7 -2 12 3 10 10
-1 8 2 11 7 8 5 -4 12 -2 15 3 6 10 -34 43 -67 54 -22 8 -37 48 -30 78 6 21 5
23 -10 10 -23 -19 -49 -6 -45 21 2 13 9 22 16 21 28 -6 9 36 -37 81 -37 37
-58 49 -90 53 -50 7 -114 -15 -167 -58 -21 -16 -77 -50 -126 -74 l-88 -44 37
-10 c53 -15 73 -14 73 5 0 10 -6 14 -15 10 -8 -3 -15 -1 -15 4 0 6 6 10 13 10
19 0 36 -20 30 -35 -2 -8 8 -21 24 -31 15 -10 65 -49 110 -86 98 -81 126 -96
148 -78 17 14 19 29 5 50 -9 13 -11 13 -20 0 -8 -13 -10 -12 -10 3 0 26 23 20
53 -15 21 -23 31 -28 39 -20 21 21 55 13 82 -19 14 -17 26 -25 26 -19 0 6 5 8
10 5 7 -4 8 -11 1 -18 -5 -7 -10 -15 -10 -19 -1 -5 -3 -7 -4 -5 -2 1 -11 -4
-20 -11 -10 -9 -17 -10 -22 -2 -3 6 -10 8 -15 5 -11 -7 -60 34 -60 51 0 19
-26 18 -34 -1 -3 -10 -19 -15 -44 -15 -31 0 -50 9 -99 49 l-61 49 1 -34 c1
-18 -2 -36 -5 -40 -4 -3 -32 -8 -63 -10 -47 -2 -60 1 -77 18 l-22 22 30 8 c33
9 64 2 64 -14 0 -5 6 -8 14 -5 8 3 17 1 19 -6 3 -9 7 -9 17 0 20 18 -33 105
-80 132 -42 24 -127 43 -156 35 -47 -12 -88 -192 -80 -351 7 -148 62 -361 101
-393 8 -7 13 -16 10 -20 -5 -8 14 -28 28 -29 4 -1 6 -4 5 -8 -2 -5 -6 -7 -10
-6 -13 5 -9 -4 8 -17 12 -11 15 -11 12 1 -2 8 3 13 9 12 7 -2 12 3 10 10 -1 6
4 11 10 10 7 -2 12 3 10 10 -1 6 4 11 10 10 7 -2 12 3 10 10 -1 6 4 11 10 10
7 -2 12 3 10 10 -1 6 4 11 10 10 7 -2 12 3 10 10 -1 6 4 11 10 10 7 -2 12 3
10 10 -1 6 4 11 10 10 7 -2 12 3 10 10 -1 6 4 11 10 10 7 -2 12 3 10 10 -1 6
4 11 10 10 7 -2 12 3 10 10 -1 6 4 11 10 10 7 -2 12 3 10 10 -1 6 4 11 10 10
7 -2 12 3 10 10 -1 6 4 11 10 10 7 -2 12 3 10 10 -1 6 4 11 10 10 7 -2 12 3
10 10 -1 6 4 11 10 10 7 -2 12 3 10 10 -1 6 4 11 10 10 7 -2 12 3 10 10 -1 6
4 11 10 10 7 -2 12 3 10 10 -1 6 4 11 10 10 7 -2 12 3 10 10 -1 6 4 11 11 10
6 -2 11 3 10 10 -2 6 3 11 10 9 6 -1 11 4 10 10 -2 7 3 12 10 10 6 -1 11 4 10
10 -2 7 3 12 10 10 6 -1 11 4 10 10 -2 7 3 12 10 10 6 -1 11 4 10 10 -2 7 3
12 10 10 6 -1 11 4 10 10 -2 7 3 12 10 10 6 -1 11 4 10 10 -2 7 3 12 10 10 6
-1 11 4 10 10 -2 7 3 12 10 10 6 -1 11 4 10 10 -2 7 3 12 10 10 6 -1 11 4 10
10 -2 7 3 12 10 10 6 -1 11 4 10 10 -2 7 3 12 10 10 6 -1 11 4 10 10 -2 7 3
12 10 10 6 -1 11 4 10 10 -2 7 3 12 10 10 6 -1 11 4 10 10 -2 7 3 12 10 10 6
-1 11 4 10 10 -2 7 3 12 10 10 6 -1 11 4 10 10 -2 7 3 12 10 10 6 -1 11 4 10
10 -2 7 3 12 10 10 6 -1 11 4 10 10 -2 7 3 12 10 10 6 -1 11 4 10 10 -2 7 3
12 10 10 6 -1 11 4 10 10 -2 7 3 12 11 10 12 -3 12 -1 0 15 -8 10 -19 21 -26
26 -6 4 -10 19 -7 33 3 14 -1 33 -8 42 -11 13 -10 15 3 10 9 -4 33 -3 52 2 20
4 39 5 42 1 4 -3 12 -6 18 -6 7 -1 11 -6 10 -11 -1 -6 4 -11 12 -11 8 0 13 5
12 11 -1 6 4 10 10 9 7 -2 12 3 10 10 -1 6 4 11 10 10 7 -2 12 3 10 10 -1 6 3
11 9 10 6 -1 11 4 11 12 0 10 -5 10 -23 -3 -13 -9 -24 -21 -24 -25 0 -5 -5 -5
-10 -2 -8 5 -8 11 0 20 7 9 6 16 -7 26 -14 12 -16 12 -8 0 6 -10 4 -12 -5 -6
-9 6 -11 4 -5 -5 5 -8 4 -11 -3 -6 -6 3 -14 2 -17 -4 -4 -6 -2 -9 3 -8 9 3 12
-2 12 -18 0 -4 -8 0 -17 7 -9 8 -14 9 -10 3 3 -6 0 -11 -7 -11 -7 0 -13 6 -13
13 0 7 5 12 11 11 6 -1 10 4 9 10 -2 7 3 12 10 10 6 -1 11 4 10 10 -2 7 3 12
10 10 6 -1 11 4 9 11 -1 8 2 11 8 7 6 -3 8 -11 5 -16 -4 -5 -1 -9 4 -9 6 0 9
10 8 22 -4 24 29 68 50 68 9 0 11 5 7 13 -6 9 -4 9 8 -1 14 -11 16 -11 14 0
-1 7 -5 18 -9 24 -8 13 1 24 20 24 8 0 11 -5 7 -12 -5 -10 -4 -10 6 -1 23 21
0 36 -49 30 -59 -7 -144 9 -184 34 -48 29 -117 25 -211 -14z m14 -56 c0 -30
-5 -42 -24 -55 -24 -15 -25 -15 -31 15 -5 24 -2 36 16 55 31 33 39 30 39 -15z
m285 -50 c-30 -59 -29 -59 -90 -65 -35 -3 -44 -1 -36 7 6 6 11 23 11 37 0 44
36 66 108 69 l32 1 -25 -49z m-406 -115 c19 -21 20 -24 6 -30 -31 -11 -54 -6
-70 17 -15 21 -14 22 7 29 13 3 26 6 29 7 3 1 16 -10 28 -23z m-201 -38 c-36
-46 -54 -55 -78 -40 -12 7 -25 10 -30 7 -6 -4 -10 -1 -10 4 0 6 5 11 10 11 6
0 10 6 10 13 0 25 24 37 73 37 l50 0 -25 -32z m636 1 c-3 -5 -10 -7 -15 -3 -5
3 -7 10 -3 15 3 5 10 7 15 3 5 -3 7 -10 3 -15z m-180 -24 c3 -8 12 -15 20 -15
9 0 13 -7 11 -19 -2 -11 5 -27 16 -37 20 -18 12 -25 -347 -385 -202 -203 -371
-366 -376 -363 -5 3 -6 10 -2 15 3 5 10 7 15 3 5 -3 8 0 7 8 -2 7 3 12 9 11 7
-2 12 3 10 10 -1 6 4 11 10 10 7 -2 12 3 10 10 -1 6 4 11 10 10 7 -2 12 3 10
10 -1 6 4 11 10 10 7 -2 12 3 10 10 -1 6 4 11 10 10 7 -2 12 3 10 10 -1 6 4
11 10 10 7 -2 12 3 10 10 -1 6 4 11 10 10 7 -2 12 3 10 10 -1 6 4 11 11 9 6
-1 11 4 10 10 -2 7 3 12 10 10 6 -1 11 4 10 10 -2 7 3 12 10 10 6 -1 11 4 10
10 -2 7 3 12 10 10 6 -1 11 4 10 10 -2 7 3 12 10 10 6 -1 11 4 10 10 -2 7 3
12 10 10 6 -1 11 4 10 10 -2 7 3 12 10 10 6 -1 11 4 10 10 -2 7 3 12 10 10 6
-1 11 4 10 10 -2 7 3 12 10 10 6 -1 11 4 10 10 -2 7 3 12 10 10 6 -1 11 4 10
10 -2 7 3 12 10 10 6 -1 11 4 10 10 -2 7 3 12 10 10 6 -1 11 4 10 10 -2 7 3
12 10 10 6 -1 11 4 10 10 -2 7 3 12 10 10 6 -1 11 4 10 10 -2 7 3 12 9 11 7
-2 12 3 10 10 -1 6 4 11 10 10 7 -2 12 3 10 10 -1 6 3 11 9 10 6 -1 11 4 11
12 0 8 -5 11 -10 8 -6 -3 -7 -1 -3 5 7 12 -19 10 -31 -2 -4 -4 -3 -7 2 -6 19
4 26 0 20 -10 -5 -8 -12 -7 -23 2 -13 11 -14 11 -7 -1 6 -10 4 -12 -5 -6 -9 6
-11 4 -5 -5 5 -8 4 -11 -3 -6 -6 3 -14 2 -17 -4 -4 -6 -3 -10 2 -9 17 3 24 -1
18 -11 -5 -8 -12 -7 -23 2 -13 11 -14 11 -7 -1 6 -10 4 -12 -5 -6 -9 6 -11 4
-5 -5 5 -8 4 -11 -3 -6 -6 3 -14 2 -17 -4 -4 -6 -3 -10 2 -9 17 3 24 -1 18
-11 -5 -8 -12 -7 -23 2 -13 11 -14 11 -7 -1 6 -10 4 -12 -5 -6 -9 6 -11 4 -5
-5 5 -8 4 -11 -3 -6 -6 3 -14 2 -17 -4 -4 -6 -3 -10 2 -9 17 3 24 -1 18 -11
-5 -8 -12 -7 -23 2 -13 11 -14 11 -7 -1 6 -10 4 -12 -5 -6 -9 6 -11 4 -5 -5 5
-8 4 -11 -3 -6 -6 3 -14 2 -17 -4 -4 -6 -3 -10 2 -9 17 3 24 -1 18 -11 -5 -8
-12 -7 -23 2 -13 11 -14 11 -7 -1 6 -10 4 -12 -5 -6 -9 6 -11 4 -5 -5 5 -8 4
-11 -3 -6 -6 3 -14 2 -17 -4 -4 -6 -3 -10 2 -9 17 3 24 -1 18 -11 -5 -8 -12
-7 -23 2 -13 11 -14 11 -7 -1 6 -10 4 -12 -5 -6 -9 6 -11 4 -5 -5 5 -8 4 -11
-3 -6 -6 3 -14 2 -17 -4 -4 -6 -3 -10 2 -9 17 3 24 -1 18 -11 -5 -8 -12 -7
-23 2 -13 11 -14 11 -7 -1 6 -10 4 -12 -5 -6 -9 6 -11 4 -5 -5 5 -8 4 -11 -3
-6 -6 3 -14 2 -17 -4 -4 -6 -3 -10 2 -9 17 3 24 -1 18 -11 -5 -8 -12 -7 -23 2
-13 11 -14 11 -7 -1 6 -10 4 -12 -5 -6 -9 6 -11 4 -5 -5 5 -8 4 -11 -3 -6 -6
3 -14 2 -17 -4 -4 -6 -3 -10 2 -9 17 3 24 -1 18 -11 -5 -8 -12 -7 -23 2 -13
11 -14 11 -7 -1 6 -10 4 -12 -5 -6 -9 6 -11 4 -5 -5 5 -8 4 -11 -3 -6 -6 3
-14 2 -17 -4 -4 -6 -3 -10 2 -9 17 3 24 -1 18 -11 -5 -8 -12 -7 -23 2 -13 11
-14 11 -7 -1 6 -10 4 -12 -5 -6 -9 6 -11 4 -5 -5 5 -8 4 -11 -3 -6 -6 3 -14 2
-17 -4 -4 -6 -3 -10 2 -9 17 3 24 -1 18 -11 -5 -8 -12 -7 -23 2 -13 11 -14 11
-7 -1 6 -10 4 -12 -5 -6 -9 6 -11 4 -5 -5 5 -8 4 -11 -3 -6 -6 3 -14 2 -17 -4
-4 -6 -3 -10 2 -9 17 3 24 -1 18 -11 -5 -8 -12 -7 -23 2 -13 11 -14 11 -7 -1
6 -10 4 -12 -5 -6 -9 6 -11 4 -5 -5 5 -8 4 -11 -3 -6 -6 3 -14 1 -18 -5 -4 -7
-3 -9 4 -5 17 10 23 -10 7 -24 -8 -7 -15 -11 -16 -9 -7 25 -4 58 5 56 6 -1 10
4 9 10 -2 7 3 12 10 10 6 -1 11 4 10 10 -2 7 3 12 10 10 6 -1 11 4 10 10 -2 7
3 12 10 10 6 -1 11 4 10 10 -2 7 3 12 10 10 6 -1 11 4 10 10 -2 7 3 12 10 10
6 -1 11 4 10 10 -2 7 3 12 10 10 6 -1 11 4 10 10 -2 7 3 12 10 10 6 -1 11 4 9
11 -1 6 4 11 10 10 7 -2 12 3 10 10 -1 6 4 11 10 10 7 -2 12 3 10 10 -1 6 4
11 10 10 7 -2 12 3 10 10 -1 6 4 11 10 10 7 -2 12 3 10 10 -1 6 4 11 10 10 7
-2 12 3 10 10 -1 6 4 11 10 10 7 -2 12 3 10 10 -1 6 4 11 10 10 7 -2 12 3 10
10 -1 6 4 11 10 10 7 -2 12 3 10 10 -1 6 4 11 10 10 7 -2 12 3 10 10 -1 6 4
11 10 10 7 -2 12 3 10 10 -1 6 4 11 10 10 7 -2 12 3 10 10 -1 6 4 11 10 10 7
-2 12 3 10 10 -1 6 4 11 10 10 7 -2 12 3 10 10 -1 6 4 11 10 10 7 -2 12 3 10
9 -1 7 4 12 10 10 7 -1 12 4 11 10 -2 7 3 12 10 10 6 -1 11 3 10 9 -3 15 41
11 61 -6 14 -11 17 -11 14 0 -2 8 2 14 9 15 15 0 28 13 28 28 1 7 7 11 15 9
10 -2 11 0 2 11 -15 18 -3 30 15 15 11 -9 13 -8 11 3 -2 8 3 13 11 11 11 -2
12 0 3 11 -15 18 -3 30 15 15 11 -9 13 -8 11 3 -2 8 3 13 12 11 11 -3 9 2 -5
18 -25 27 -29 96 -7 132 18 32 27 35 36 13z m-245 -101 c-6 -8 -18 -14 -25
-14 -8 0 -14 -6 -15 -12 -1 -15 -17 21 -18 40 -1 7 11 25 26 40 l27 27 8 -34
c6 -22 5 -37 -3 -47z m-141 50 l23 -7 -22 -23 c-25 -27 -40 -30 -68 -12 -15 9
-17 15 -8 30 12 19 35 22 75 12z m-275 -256 c28 -29 29 -32 12 -44 -15 -11
-21 -11 -34 -1 -12 10 -14 9 -9 -4 8 -22 -7 -43 -25 -36 -23 9 -50 69 -35 78
7 4 15 6 19 3 4 -2 10 5 14 16 9 28 23 25 58 -12z m32 -79 c-3 -4 -13 -5 -21
-2 -13 5 -15 1 -9 -15 4 -14 2 -22 -5 -22 -6 0 -9 4 -5 9 3 5 1 12 -5 16 -5 3
-10 11 -10 16 0 6 5 7 10 4 6 -3 10 -2 10 3 0 6 9 8 20 5 11 -3 17 -9 15 -14z"/>
<path d="M3499 1373 c-1 -1 -2 -6 -3 -10 -1 -5 -5 -14 -10 -21 -6 -11 -12 -10
-26 3 -16 15 -18 15 -16 1 3 -19 12 -29 31 -32 8 -1 13 3 12 9 -1 7 4 11 11
10 6 -2 11 3 10 10 -2 6 2 11 8 10 6 -1 11 4 11 11 0 11 -25 19 -28 9z"/>
<path d="M3775 1643 c-3 -9 0 -21 6 -27 9 -8 10 -8 5 1 -3 6 1 16 10 21 14 8
14 10 1 15 -9 3 -18 -1 -22 -10z"/>
</g>
</svg>
